<svg xmlns="http://www.w3.org/2000/svg" width="400" height="100" viewBox="0 0 400 100"><g fill-rule="evenodd"><path fill="#251e24" d="M388.796 13.571c-6.97 2-6.763 11.983.287 13.869 6.861 1.835 11.845-7.195 6.671-12.088-1.83-1.731-4.634-2.449-6.958-1.781m4.461 1.469c5.413 2.772 3.52 11.357-2.507 11.363-6.386.008-7.784-9.681-1.684-11.676 1.104-.362 3.176-.207 4.191.313m-4.614 1.428c-.567.065-.571.101-.512 4.5l.049 3.552.535-.052.535-.051.047-1.691c.043-1.519.081-1.699.375-1.776.644-.168.948.094 1.826 1.577 1.079 1.823 1.221 1.973 1.865 1.973.612 0 .607-.017-.519-1.832-.997-1.608-1.018-1.751-.285-1.993 1.814-.599 1.924-3.212.166-3.946-.559-.234-2.983-.389-4.082-.261m3.482 1.197c.828.505.754 1.63-.137 2.091-.569.294-2.176.323-2.455.044-.11-.11-.2-.62-.2-1.133 0-.514.09-1.024.2-1.134.329-.329 1.974-.245 2.592.132M136.46 28.526c-.047 11.138-.047 11.141-.878 9.603-3.254-6.021-12.538-6.243-17.831-.425-4.592 5.047-6.754 12.333-6.749 22.748.006 14.175 4.324 23.269 12.19 25.676.782.239 2.376.279 13.041.329l12.149.057-.119-1.048c-.065-.577-.199-1.724-.298-2.549-.119-.992-.214-12.197-.281-33.084l-.101-31.583-5.54-.044-5.54-.044-.043 10.364m-69.71 5.08c-3.176.266-7.447 1.649-10.037 3.25l-.546.338v3.653c0 2.009.041 3.653.091 3.653.05 0 .633-.254 1.297-.565 9.732-4.556 17.32-1.58 17.076 6.697l-.048 1.618-.666.041C59.982 53.14 52.21 59.5 51.719 70.454c-.367 8.184 3.939 14.596 10.614 15.808.975.176 3.815.228 12.879.232l11.628.006-.078-.375c-.548-2.634-.762-9.054-.763-22.946-.002-13.596-.051-14.79-.737-17.762-2.013-8.722-8.209-12.675-18.512-11.811m-45.174.385C11.668 35.136 4.615 42.892 2.471 55c-.405 2.292-.298 11.145.166 13.583 1.761 9.267 6.188 15.181 13.101 17.502 4.203 1.411 10.522 1.273 14.316-.312l.613-.256v-4.258c0-2.343-.057-4.258-.125-4.257-.069.002-.455.118-.857.258-9.829 3.422-16.438-3.222-16.422-16.51.017-13.134 5.96-19.7 15.57-17.2.871.226 1.64.378 1.709.338.068-.041.125-1.987.125-4.324v-4.249l-.875-.4c-1.942-.886-5.286-1.263-8.216-.924m167.674-.04c-10.204 1.38-16.627 11.908-16.653 27.299-.024 14.046 4.72 22.349 14.32 25.062 4.838 1.367 13.444.672 17.625-1.424l.458-.23v-3.93c0-3.576-.025-3.921-.274-3.825-5.061 1.942-12.016 2.073-15.476.292-3.56-1.833-6.109-7.226-5.883-12.45l.05-1.162 12.022-.042c10.866-.039 12.044-.069 12.247-.314.563-.678.378-9.487-.28-13.361-1.895-11.155-8.773-17.184-18.156-15.915m123.333.052c-12.216 1.571-19.831 12.813-19.361 28.58.37 12.418 5.12 20.612 13.626 23.505 4.233 1.44 10.931 1.242 14.527-.429l.458-.213v-8.485l-.375.109c-11.257 3.278-17.446-2.936-17.085-17.153.331-13.032 6.522-19.141 16.387-16.172 1.117.336 1.073.507 1.073-4.168V35.34l-.649-.331c-1.818-.928-5.691-1.381-8.601-1.006m45.691.086c-9.753 1.842-15.938 12.416-15.938 27.244 0 14.672 5.587 23.369 16.32 25.405 4.337.823 12.324-.115 15.719-1.846l.458-.234v-3.93c0-3.263-.039-3.915-.228-3.843-2.718 1.043-7.351 1.723-10.605 1.557-5.696-.291-9.05-3.343-10.327-9.397-.413-1.959-.671-5.147-.436-5.382.103-.103 4.575-.163 12.21-.163h12.047l.128-.458c.221-.79.145-9.645-.096-11.292-1.917-13.061-9.035-19.591-19.252-17.661m-125.621.313c-.038.038-.013 1.219.056 2.625s.168 13.113.22 26.015l.094 23.458h11.142l.043-21.625.042-21.625 4.25.003c5.535.004 6.708.524 7.9 3.502 1.029 2.569.998 1.946 1.059 21.706l.055 18.043 5.535-.043 5.534-.044.053-17.084c.056-18.238-.016-20.619-.716-23.716-1.361-6.027-4.376-9.552-9.297-10.87l-1.54-.413h-12.18c-6.7 0-12.212.03-12.25.068m-39.58 8.183c2.728 1.381 4.725 6.425 4.559 11.514l-.049 1.484-6.936.044c-8.202.051-7.452.279-7.163-2.174 1.007-8.532 5.081-13.149 9.589-10.868m169.661-.075c2.797 1.397 4.619 5.659 4.664 10.907l.019 2.166-7.03.044c-8.08.05-7.344.223-7.14-1.681.938-8.769 5.007-13.674 9.487-11.436m-231.337.559c2.307.694 4.209 3.513 4.85 7.189.335 1.921.384 27.545.053 27.875-.259.259-5.829.275-7.228.021-3.959-.719-6.304-5.711-6.93-14.748-.912-13.19 3.173-22.167 9.255-20.337M74.96 68.958l-.043 9.292h-7.842l-1.114-.549c-2.377-1.171-3.628-3.768-3.628-7.534 0-6.358 4.418-10.34 11.627-10.48l1.043-.02-.043 9.291"/><path fill="#ffffff" d="M0 50v50h400V0H0v50m86.295-33.216c.042 3.862.03 4.042-.283 4.209-.223.12-5.03.162-15.128.133l-14.801-.043-.044-4.209-.045-4.209 15.128.042 15.128.043.045 4.034m307.082-3.289c5.141 1.946 6.478 8.671 2.463 12.389-5.459 5.054-14.121-.113-12.248-7.307 1.091-4.191 5.748-6.609 9.785-5.082m-3.656 1.338c-2.943.615-4.928 3.966-4.15 7.003 1.679 6.554 10.473 5.436 10.502-1.336.016-3.73-2.952-6.378-6.352-5.667m3.468 1.796c1.33.822 1.442 3.132.191 3.954-.279.184-.638.411-.798.506-.263.155-.201.318.647 1.681 1.159 1.866 1.161 1.898.063 1.892l-.875-.004-1.008-1.704c-1.385-2.343-1.641-2.341-1.707.013l-.047 1.717-.869-.05-.869-.051-.045-3.996c-.025-2.199-.005-4.101.044-4.228.162-.423 4.512-.2 5.273.27m-3.455 1.269c-.048.127-.065.558-.036.958l.052.727 1.022.049c1.416.068 2.132-.871 1.299-1.703-.346-.347-2.206-.371-2.337-.031m-242.089.085c.191.121.24 5.075.301 30.706.063 26.195.112 31.013.341 33.728.147 1.741.274 3.429.282 3.75l.014.583-11.166.046c-14.973.062-15.889-.094-19.49-3.324-9.566-8.58-9.837-35.894-.456-45.839 5.64-5.978 14.741-5.961 18.165.034.262.458.524.784.583.725.059-.058.107-4.637.106-10.175 0-5.538.044-10.14.097-10.226.124-.2 10.908-.208 11.223-.008M73.75 33.61c5.121.848 8.819 3.744 10.763 8.429 1.637 3.945 1.813 6.121 1.818 22.544.005 12.996.161 18.104.641 21.035.093.568.082.928-.031 1.041-.232.232-21.802.235-23.816.004-13.329-1.527-16.156-22.239-4.139-30.327 3.424-2.304 7.736-3.683 13.181-4.214l2.25-.219-.036-1.481c-.113-4.664-2.082-7.405-5.825-8.112-2.9-.546-8.594.562-11.681 2.274-1.008.559-1.042.436-1.042-3.815v-3.585l.552-.421c3.609-2.753 11.323-4.154 17.365-3.153m-45.72.398c.705.17 1.661.501 2.125.736l.845.428v4.488c0 2.468-.065 4.527-.144 4.576-.08.049-.886-.105-1.792-.343-9.8-2.575-15.505 3.735-15.47 17.107.023 9.077 2.749 14.597 8.059 16.32 1.918.622 5.832.433 8.16-.394 1.273-.453 1.187-.758 1.187 4.222v4.482l-.708.333c-5.197 2.44-13.714 1.696-18.798-1.642C-.368 76.532-1.765 51.486 9.027 40.085c4.937-5.215 12.512-7.638 19.003-6.077m167.859.056C204.164 36.38 208.64 45.397 208.268 59c-.054 1.971-.144 3.827-.202 4.124l-.104.54-12.106.043-12.106.043-.052 1.167c-.263 5.849 2.736 11.189 7.116 12.671 3.205 1.084 9.323.689 13.485-.871 1.051-.393 1.046-.414.996 4.128l-.045 4.072-1.333.531c-7.794 3.103-17.248 2.406-23-1.696-7.363-5.251-10.575-18.501-7.758-32.004 2.71-12.988 12.446-20.563 22.73-17.684m122.934-.118c.682.141 1.675.446 2.208.677l.969.421v9.328l-.375-.085a66.875 66.875 0 01-1.708-.453c-9.356-2.585-15.298 4.049-15.301 17.083-.002 9.034 2.961 14.86 8.384 16.488 1.783.534 6.117.274 7.911-.475 1.153-.482 1.089-.731 1.089 4.232v4.496l-.487.252c-2.922 1.511-9.275 1.89-13.596.811-11.324-2.827-17.489-17.359-14.27-33.638 2.598-13.142 13.64-21.536 25.176-19.137m46.904.135c6.803 1.973 10.8 7.935 12.127 18.086.225 1.72.283 9.406.082 10.708l-.123.792h-12.147c-7.91 0-12.182.058-12.249.166-.434.702.705 6.616 1.663 8.633 2.691 5.667 9.629 7.328 18.481 4.424 1.081-.355 1.337-.39 1.456-.202.161.254.207 7.634.051 8.042-.393 1.024-7.665 2.603-11.984 2.603-9.754 0-15.836-4.29-19.318-13.628-2.204-5.907-2.345-16.33-.324-23.872 3.181-11.872 12.632-18.552 22.285-15.752m-107.915.175c5.663 1.074 9.289 5.286 10.593 12.303.695 3.739.94 39.745.273 40.102-.512.273-11.087.232-11.317-.044-.125-.151-.198-5.781-.241-18.542-.067-19.724-.023-18.714-.921-21.043-1.153-2.992-2.098-3.433-7.491-3.503l-4.208-.054v21.479c0 16.484-.047 21.526-.2 21.679-.293.293-10.957.285-11.345-.008-.252-.191-.282-2.163-.365-24.208-.05-13.2-.132-24.994-.183-26.209L232.315 34h12.074c10.159 0 12.288.041 13.423.256m-68.395 8.282c-2.95 1.051-6.082 7.657-5.72 12.066l.053.646h13.667l-.053-1.667c-.243-7.638-3.767-12.535-7.947-11.045m169.605.079c-2.687.95-5.048 5.804-5.457 11.219l-.113 1.497h6.84c6.058 0 6.85-.03 6.939-.261.137-.357-.195-4.044-.495-5.484-1.139-5.482-4.172-8.223-7.714-6.971m-230.739.78c-7.762 2.891-8.152 30.287-.485 34.052.943.463.986.468 4.638.521l3.686.052.103-.386c.172-.639.116-23.397-.062-25.546-.529-6.386-3.948-10.157-7.88-8.693m-56.2 16.708l-1.583.338c-5.837 1.237-8.951 6.299-7.645 12.424.861 4.037 2.461 5.05 7.978 5.05h3.917V60.083l-1.167-.025c-.641-.014-1.316.007-1.5.047"/><path fill="#e21e39" d="M56.075 13.045c-.045.117-.061 1.936-.037 4.042l.045 3.83 14.815.042c10.808.031 14.877-.008 15.042-.145.283-.235.332-7.139.054-7.658-.219-.41-29.762-.519-29.919-.111"/><path fill="#9f9d9e" d="M56 12.791c0 .069 6.694.106 14.875.082 13.851-.041 14.889-.024 15.083.24.314.427.296 7.44-.019 7.702-.167.138-4.199.177-15.067.145-8.162-.024-14.805.013-14.763.082.144.233 29.625.151 29.946-.084.257-.188.28-.595.24-4.208l-.045-4-15.125-.043c-8.319-.023-15.125.015-15.125.084m333.365.351c-.211.059.464.11 1.5.112 1.037.002 1.66-.045 1.385-.105-.648-.142-2.391-.146-2.885-.007m-1.198.358c-.223.144-.223.162 0 .162.137 0 .362-.073.5-.162.222-.144.222-.162 0-.162-.138 0-.363.073-.5.162m5.634.323c1.201.57 2.96 2.227 3.429 3.232.164.351.339.599.388.549.568-.568-2.834-3.758-4.451-4.173-.229-.059.056.117.634.392m-7.218.485c-1.033.635-2.545 2.612-2.822 3.692-.059.229.138-.071.437-.667.522-1.039 1.758-2.466 2.635-3.042.573-.376.368-.362-.25.017m2.584.523c-.171.109-.038.127.416.057.824-.126.964-.222.32-.219-.268.002-.599.074-.736.162m2.18-.105c.038.033.332.108.653.166.41.076.509.059.333-.056-.226-.148-1.151-.251-.986-.11m-3.264.593c-.586.372-1.235.961-1.575 1.431-.133.183.092.022.5-.359.408-.381 1.004-.849 1.325-1.041.321-.192.509-.349.417-.349-.092 0-.392.143-.667.318m5.352.173c1.007.577 1.639 1.283 2.173 2.425.214.458.389.736.39.618.008-.974-2.312-3.54-3.195-3.533-.121 0 .164.221.632.49m-5.491.786c-.154.154-.14 8.184.014 8.28.069.042.104-1.788.078-4.069l-.047-4.145 2.047-.053 2.047-.052-2.014-.036c-1.107-.02-2.063.014-2.125.075m4.991.404c.827.402 1.062.864 1.076 2.118.008.79.038.881.173.543.441-1.105-.657-3.039-1.704-3.001-.126.004.078.158.455.34m-7.026 1c-.147.284-.237.545-.201.581.036.037.19-.195.343-.515.343-.719.224-.774-.142-.066m3.66.046c-.049.126-.065.632-.037 1.125l.051.897 1 .019 1 .02-.916-.103-.917-.103V17.75l.917-.098.916-.098-.963-.027c-.682-.019-.989.04-1.051.201m2.476.174c.158.159.288.503.288.765s-.13.606-.288.765c-.218.217-.228.268-.042.206.369-.123.589-.893.404-1.416-.086-.245-.268-.482-.404-.527-.186-.062-.176-.011.042.207m-255.678.131c-.11.11-.2.275-.2.366 0 .09.093.038.208-.116.187-.252.776-.286 5.708-.326l5.5-.045-5.508-.039c-4.107-.03-5.559.011-5.708.16m11.353 27.884c-.006 15.4.041 29.087.105 30.416.149 3.085.163-39.788.017-50.416-.069-5.031-.114 2.392-.122 20m235.72-26.792c-.128.778-.109 2.331.035 2.842.06.211.108-.483.108-1.542 0-2.161 0-2.163-.143-1.3m1.997-.369c-.057.149-.095.509-.085.799.016.46.037.433.163-.211.149-.759.107-1.07-.078-.588m10.646 1.643c0 .873.051 1.459.114 1.302.142-.358.139-1.991-.005-2.503-.06-.211-.109.329-.109 1.201m1.977.101c0 .871.028 1.227.063.792.034-.436.034-1.148 0-1.584-.035-.435-.063-.079-.063.792m-4.474-.214l-.293.464.386-.37c.212-.204.344-.413.293-.464-.052-.051-.225.116-.386.37m-1.044.553c-.207.082-.375.229-.375.326 0 .14.472-.075.986-.448.14-.102-.247-.025-.611.122m-2.958.369c-.132.38-.17 3.459-.042 3.459.068 0 .125-.753.125-1.672 0-1.783.168-2.129.793-1.639.262.206.268.2.061-.064-.265-.338-.831-.388-.937-.084m-4.248.306c.001.221.076.515.166.653.116.176.132.077.057-.334-.132-.718-.227-.854-.223-.319m7.182.361c.108.206.325.563.483.792.158.229.485.791.726 1.248.242.458.44.73.44.604 0-.223-1.647-3.019-1.779-3.019-.036 0 .022.169.13.375m-1.453.458c.245.413.649 1.107.899 1.542.249.435.505.791.569.791.123.001-1.449-2.628-1.743-2.916-.094-.092.03.171.275.583m6.697.262c-.061.244-.079.476-.04.516.039.039.121-.129.183-.373.061-.244.079-.476.04-.515-.039-.04-.122.128-.183.372m-12.095.09c0 .616 1.391 2.379 2.25 2.85.183.1-.055-.168-.529-.597-.474-.428-1.055-1.167-1.292-1.641-.236-.474-.429-.75-.429-.612m8.872 1.91c-.391.416-1.029.901-1.417 1.077-.388.177-.583.322-.433.324.399.006 1.8-.993 2.277-1.621.572-.755.41-.672-.427.22m2.299-.019c-.458.74-1.82 1.965-2.595 2.333-.332.157-.563.327-.513.377.284.283 2.901-1.953 3.42-2.921.31-.579.08-.423-.312.211m-12.408-.243c.251.516 1.265 1.664 1.783 2.018.365.25.267.106-.308-.45-.464-.45-1.013-1.043-1.22-1.318-.207-.275-.322-.387-.255-.25m4.961 1.873c.106.067.717.122 1.359.122s1.253-.055 1.358-.122c.106-.068-.506-.123-1.359-.123s-1.464.055-1.358.123m-2.558.567c0 .113 1.842.941 1.92.863.035-.035-.382-.262-.928-.503-.545-.241-.992-.403-.992-.36m6 .727c-.222.144-.222.162 0 .162.138 0 .363-.073.5-.162.223-.144.223-.162 0-.162-.137 0-.362.073-.5.162m-2.875.379a6.108 6.108 0 001.75 0c.78-.131.685-.147-.875-.147-1.559 0-1.655.016-.875.147M69.044 33.286c.253.039.628.038.833-.002.205-.04-.002-.071-.46-.07-.459.002-.626.034-.373.072m57.164.003c.436.035 1.148.035 1.584 0 .435-.034.079-.062-.792-.062s-1.227.028-.792.062M65.5 33.5c-.87.183.144.19 1.167.009l.75-.134-.667.001a7.395 7.395 0 00-1.25.124m6.5.009c1.063.189 2.009.173 1.083-.019a6.923 6.923 0 00-1.25-.126c-.544.01-.532.02.167.145m52.167-.009c-.33.106-.348.133-.084.133.184 0 .521-.06.75-.133.33-.106.348-.133.084-.133-.184 0-.521.06-.75.133m5.166 0c.23.073.567.133.75.133.264 0 .247-.027-.083-.133a3.031 3.031 0 00-.75-.133c-.264 0-.247.027.083.133m-105.373.118c.208.04.508.038.667-.003.159-.042-.01-.075-.377-.073-.367.002-.497.036-.29.076m167.004.005c.484.034 1.234.033 1.667-.001.432-.034.036-.062-.881-.061-.917 0-1.27.028-.786.062m169.744 0c.436.034 1.148.034 1.584 0 .435-.035.079-.063-.792-.063s-1.227.028-.792.063m-339.875.21c-.833.176.022.183 1 .009.677-.121.693-.134.167-.133a7.007 7.007 0 00-1.167.124m5.584.01c.89.184 1.501.178.916-.01-.229-.073-.679-.132-1-.131l-.583.003.667.138m37.166-.01c-.449.115-.457.128-.083.131.229.001.604-.057.833-.131.561-.179-.045-.179-.75 0m10.431-.101c.118.111 2.199.611 2.265.544.035-.035-.375-.186-.91-.336-.928-.261-1.505-.349-1.355-.208m48.986.101c-.222.144-.222.162 0 .162.138 0 .362-.073.5-.162.222-.143.222-.161 0-.161a1.1 1.1 0 00-.5.161m7.5-.128c.144.137 2 .947 2 .873 0-.099-1.162-.675-1.667-.827-.229-.069-.379-.09-.333-.046m57.833.128l-.416.134h.416c.23 0 .605-.06.834-.134l.416-.133h-.416c-.229 0-.604.06-.834.133m5.834 0c.229.074.604.134.833.134h.417l-.417-.134a3.304 3.304 0 00-.833-.133h-.417l.417.133m117.666 0c-.571.121-.573.123-.083.135.275.007.8-.049 1.167-.125l.666-.138-.583.003a7.01 7.01 0 00-1.167.125m5.667 0c.229.074.642.132.917.131l.5-.003-.5-.128a4.7 4.7 0 00-.917-.13l-.417-.003.417.133m40.667 0l-.417.134h.417c.229 0 .604-.06.833-.134l.417-.133H359c-.229 0-.604.06-.833.133m5.833 0c.229.074.604.134.833.134h.417l-.417-.134A3.304 3.304 0 00364 33.7h-.417l.417.133m-344.917.334l-.333.143h.333c.184 0 .484-.065.667-.143l.333-.144h-.333a2.03 2.03 0 00-.667.144m9.084 0c.137.089.4.157.583.152l.333-.009-.333-.143c-.498-.214-.915-.214-.583 0m34.083 0l-.333.143.333.009c.183.005.446-.063.583-.152.332-.214-.085-.214-.583 0m59.167.364c-2.824 1.455-6.015 4.964-7.285 8.011-.249.599.015.262.455-.58 1.719-3.286 4.113-5.803 6.957-7.313.663-.352 1.131-.639 1.039-.637-.091.002-.616.236-1.166.519M187 34.167c-.343.11-.358.136-.083.147.183.008.445-.058.583-.147.292-.189.089-.189-.5 0m45.333-.042c0 .069 5.75.125 12.776.125 7.027 0 12.483-.052 12.125-.115-.886-.158-24.901-.167-24.901-.01m77.834.042c-.335.107-.352.134-.084.138.184.003.484-.06.667-.138.425-.183-.013-.183-.583 0m9.881.233c.622.222 1.316.524 1.542.672.225.148.41.202.41.12 0-.191-1.743-.949-2.502-1.088-.32-.059-.072.074.55.296m36.702-.233l-.333.143.333.009c.183.005.446-.063.583-.152.332-.214-.085-.214-.583 0M61.167 34.5c-.223.144-.223.162 0 .162.137 0 .362-.073.5-.162.222-.144.222-.162 0-.162-.138 0-.363.073-.5.162m135.666 0c.138.089.363.162.5.162.223 0 .223-.018 0-.162a1.098 1.098 0 00-.5-.162c-.222 0-.222.018 0 .162m61.834.074c1.288.406 1.642.472 1.039.192a5.013 5.013 0 00-1.166-.34c-.596-.085-.59-.079.127.148m50.25-.074l-.334.143.334.009c.183.005.445-.063.583-.152.331-.214-.085-.214-.583 0m46.5.158c-.367.173-.592.316-.5.316.227.002 1.542-.614 1.333-.624-.092-.004-.467.134-.833.308m11.732.024c.403.179.763.295.799.259.072-.072-1.212-.615-1.41-.596-.067.007.208.158.611.337m-350.316.151c-.222.144-.222.162 0 .162.138 0 .363-.073.5-.162.223-.143.223-.161 0-.161-.137 0-.362.072-.5.161m60.514-.111c.038.03.595.335 1.236.677.642.342 1.017.499.834.348-.358-.294-1.83-1.08-2.023-1.08-.064 0-.085.024-.047.055m55.817.389a10.528 10.528 0 012.195 2.431c.627.975.8 1.037.277.1-.44-.788-2.08-2.518-2.663-2.809-.235-.116-.159-.006.191.278M30.75 39.557v4.526l-.5-.037c-.485-.037-.488-.033-.094.131.841.349.844.332.844-4.495 0-2.473-.056-4.53-.125-4.573-.069-.043-.125 1.959-.125 4.448m28.333-4.233c-.366.174-.619.322-.562.329.162.021 1.312-.48 1.312-.572 0-.112 0-.111-.75.243m125 .009c-.275.182-.455.332-.4.333.152.001 1.15-.514 1.15-.595 0-.15-.269-.056-.75.262m76.334-.166a.415.415 0 00.321.166c.862 0 3.819 2.579 4.922 4.292.679 1.055.839 1.141.31.167-.595-1.098-3.058-3.482-4.319-4.182-1.137-.631-1.411-.729-1.234-.443m45.777.414c-1.337.641-3.417 1.939-3.612 2.254-.068.111.438-.182 1.126-.65a23.606 23.606 0 012.646-1.514c.768-.364 1.319-.664 1.225-.666-.095-.003-.718.257-1.385.576m47.75-.311c-.261.141-.442.288-.402.327.078.078 1.125-.411 1.125-.526 0-.128-.243-.062-.723.199m-121.562 1.147c-.003.733.047 2.195.111 3.25l.116 1.916.011-1.75a45.376 45.376 0 00-.111-3.25l-.123-1.5-.004 1.334M199 35.388c0 .036.394.328.875.65 2.632 1.761 4.58 4.376 6.159 8.27.359.885.608 1.397.554 1.139-.465-2.191-2.576-5.761-4.599-7.776-1.293-1.289-2.989-2.584-2.989-2.283m169.833-.003c0 .039.319.281.709.538 1.152.76 2.407 1.908 3.251 2.976 1.207 1.526 1.255 1.58 1.065 1.184-.608-1.26-5.025-5.39-5.025-4.698m-311.391.718c-.444.231-.775.453-.734.494.078.078 1.625-.742 1.625-.861 0-.098.004-.099-.891.367m124.792.375c-.633.446-1.301.984-1.484 1.195-.183.211.079.051.583-.356.505-.406 1.198-.912 1.542-1.125.55-.34.751-.525.568-.525-.032 0-.575.365-1.209.811m169.925-.113c-1.35.901-3.564 3.088-4.525 4.468-1.005 1.444-1.355 2-1.26 2 .043 0 .364-.431.712-.958 1.524-2.306 3.297-4.134 5.289-5.454.868-.575 1.081-.754.894-.754-.035 0-.535.314-1.11.698m-339.463.576C10.199 38.619 7.513 41.472 6.049 44c-.634 1.095-.338.745.772-.913 1.764-2.633 4.387-5.186 6.637-6.457.482-.273.875-.525.875-.563 0-.177-.358.014-1.637.874m68.259.125c.663.617 1.521 1.602 1.907 2.19.387.587.733 1.038.77 1.001.226-.226-2.037-2.904-3.211-3.8-.369-.282-.129-.008.534.609m-25.05 3.767c0 2.063.024 2.907.053 1.875a80.83 80.83 0 000-3.75c-.029-1.031-.053-.187-.053 1.875m123.843-2.331c-.262.274-.422.498-.355.498.172 0 .991-.838.904-.925-.039-.039-.286.153-.549.427m121.396.553c-1.199 1.116-3.341 3.612-3.1 3.612.047 0 .496-.507.999-1.125 1.053-1.296 1.417-1.684 2.518-2.682.439-.398.773-.748.743-.779-.031-.03-.552.408-1.16.974m-122.518.753c-.828.916-2.454 3.359-2.237 3.359.037 0 .47-.619.961-1.375.491-.757 1.147-1.657 1.458-2 .31-.344.527-.625.481-.625-.046 0-.344.288-.663.641m-94.959.75c0 .178.547 1.117.613 1.051.086-.086-.407-1.109-.534-1.109-.044 0-.079.026-.079.058m291.115 1.395c.431.845.811 1.509.845 1.476.08-.081-1.025-2.251-1.364-2.679-.145-.183.089.358.519 1.203m-108.449-1.229c0 .178.548 1.117.613 1.052.086-.086-.406-1.109-.534-1.109-.043 0-.079.026-.079.057M64.426 42.145c-.27.058.608.105 1.951.105 1.342 0 2.313-.051 2.157-.113-.353-.141-3.442-.135-4.108.008m126.032.139c.207.04.544.04.75 0 .207-.039.038-.072-.375-.072-.412 0-.581.033-.375.072m169.834 0c.206.04.543.04.75 0 .206-.039.037-.072-.375-.072-.413 0-.582.033-.375.072M62.25 42.5l-.333.143.333-.008c.183-.004.558-.065.833-.135l.5-.127-.5-.008c-.275-.005-.65.056-.833.135m7.432.077c.33.122.844.348 1.144.502.299.155.499.209.444.121-.144-.235-1.549-.869-1.893-.855-.162.007-.024.111.305.232m122.818.047c.489.172 1.112.625 1.792 1.304.573.573 1.041 1.018 1.041.989 0-.544-2.588-2.596-3.242-2.571-.194.008-.019.127.409.278m169.832 0c.975.344 2.472 1.839 3.141 3.135.281.545.515.926.519.848.063-1.122-2.973-4.303-4.066-4.261-.197.008-.025.126.406.278M61 42.841c-.183.123-.115.139.25.057.613-.137.746-.232.319-.229a1.219 1.219 0 00-.569.172m23.672-.008c0 .138.072.363.161.5.144.223.162.223.162 0 0-.137-.073-.362-.162-.5-.143-.222-.161-.222-.161 0m102.919.689c-.515.471-1.013.998-1.106 1.173-.093.174.228-.084.714-.574.487-.489 1.072-1.013 1.301-1.163.229-.151.329-.278.222-.283-.107-.004-.616.377-1.131.847m169.596.27c-.952.962-2.195 2.851-2.183 3.315.002.078.258-.329.569-.906.766-1.421 1.302-2.094 2.289-2.875.459-.363.745-.659.636-.659-.11 0-.7.506-1.311 1.125M267.338 43c0 .137.073.362.162.5.144.222.162.222.162 0 0-.138-.073-.363-.162-.5-.144-.222-.162-.222-.162 0m30.038.625c-.927 1.491-1.405 2.401-1.311 2.495.051.052.147-.048.213-.221.113-.302.711-1.365 1.419-2.524.181-.298.294-.542.251-.542-.044 0-.301.357-.572.792m-183.77-.019c-.158.331-.251.638-.206.683.044.044.198-.202.342-.547.34-.813.237-.917-.136-.136m15.025-.469c-.157.062.417.113 1.276.113s1.475-.055 1.369-.122c-.239-.152-2.256-.145-2.645.009m216.963 1.008c-.803 1.596-.748 1.745.073.198.362-.682.627-1.271.59-1.309-.038-.037-.336.463-.663 1.111m-321.63-.855c.484.034 1.234.033 1.667-.001.432-.034.036-.062-.881-.061-.917 0-1.27.028-.786.062m291.078-.001c.435.035 1.148.035 1.583 0 .435-.034.079-.062-.792-.062s-1.227.028-.791.062M22 43.508c-.183.123-.115.139.25.057.613-.137.746-.233.319-.229a1.207 1.207 0 00-.569.172m5.25-.008c.275.07.65.131.833.135l.334.008-.334-.143c-.183-.079-.558-.14-.833-.135l-.5.008.5.127m31.272.105c-.308.135-.525.28-.482.324.043.043.408-.068.811-.247.403-.179.62-.324.482-.323-.137.001-.502.112-.811.246m13.592.403c.384.408.889 1.079 1.123 1.492.234.413.426.675.427.583.003-.407-1.242-2.078-1.918-2.575-.181-.133-.015.092.368.5m55.044-.199c-.809.518-1.672 1.408-1.981 2.04-.146.299-.101.275.18-.099.607-.81 1.61-1.724 2.274-2.075.341-.18.54-.33.443-.334-.096-.004-.509.206-.916.468m48.603.336c-.589 1.162-.534 1.309.076.203.273-.497.465-.935.425-.975-.04-.04-.265.307-.501.772m68.531 20.813l-.042 21.625-5.583.087-5.584.087 5.509.038c4.105.029 5.559-.013 5.708-.162.153-.153.2-5.195.2-21.677V43.479l4.151.052c2.284.029 4.065-.003 3.959-.07-.106-.067-2.012-.124-4.234-.125l-4.041-.003-.043 21.625M313 43.5c-.331.214.085.214.583 0l.334-.143-.334-.009a1.198 1.198 0 00-.583.152m4.847-.107c.038.034.407.11.82.17.524.076.674.058.5-.058-.225-.15-1.487-.256-1.32-.112m-297.19.584c-1.705.852-3.355 2.436-4.42 4.24-.859 1.456-.685 1.379.277-.124 1.091-1.702 2.444-3.017 3.906-3.797 1.164-.62 1.356-.879.237-.319m8.176-.144c.643.206.985.206.667 0-.137-.089-.437-.155-.667-.147l-.416.014.416.133m104.48.795c.52.525 1.168 1.382 1.438 1.904.27.521.517.923.548.891.275-.275-1.862-3.178-2.651-3.6-.155-.083.144.279.665.805m99.394 20.404c-.022 11.797.016 21.483.085 21.526.113.07.112-14.745-.002-35.225-.024-4.262-.061 1.902-.083 13.699m20.891-21.067c1.248.691 2.206 1.858 2.67 3.255.158.475.317.773.355.662.299-.894-2.387-4.245-3.373-4.208-.092.004.065.135.348.291m66.083-.238c.038.032.294.11.569.171.365.082.433.066.25-.057-.225-.152-.987-.259-.819-.114M267.69 44c0 .137.065.4.143.583.091.21.144.241.144.084 0-.138-.065-.4-.144-.584-.09-.21-.143-.241-.143-.083m-210.565.262c-.646.351-.573.472.083.138.629-.32.74-.403.528-.393-.084.003-.359.118-.611.255m263.958-.091c.429.178.917.198.916.037 0-.068-.281-.136-.625-.15-.473-.019-.543.008-.291.113m-10.5.471c-1.213.746-4.199 4.464-3.859 4.805.043.042.328-.397.635-.975.536-1.011 2.571-3.267 3.474-3.851.578-.375.364-.356-.25.021m-197.647.627c-.349 1.023-.238 1.133.141.141.16-.42.255-.801.209-.846-.045-.045-.203.272-.35.705m-107.853.398c-.241.476-.405.9-.363.941.041.042.27-.316.509-.795.239-.48.403-.904.364-.942-.039-.039-.268.319-.51.796m80.279-.584c-.003.184.059.484.138.667.183.425.183-.013 0-.583-.107-.335-.134-.352-.138-.084m182.666.25c-.002.23.06.567.139.75l.143.334-.005-.334a3.213 3.213 0 00-.138-.75l-.134-.416-.005.416m-72.227.81c.247.538.472.918.5.847.054-.138-.757-1.823-.878-1.823-.039 0 .131.439.378.976m-20.862-.204c-.157.331-.25.639-.206.683.044.044.199-.201.343-.546.34-.814.236-.918-.137-.137m10.636.243c-.146.284-.237.545-.2.581.036.037.19-.195.342-.515.343-.719.224-.774-.142-.066m159.029.148c-.376.94-.318 1.08.078.187.179-.403.295-.762.259-.798-.036-.036-.188.238-.337.611m-258.898.42c0 .275.057.725.127 1l.128.5v-.5c0-.275-.058-.725-.128-1l-.127-.5v.5m26.723.012c-.062.244-.08.476-.04.515.039.04.121-.128.182-.372.062-.244.08-.476.04-.516-.039-.039-.121.129-.182.373m11.979.421c-.237.468-.402.878-.368.912.034.034.263-.348.509-.85.246-.501.412-.912.369-.912-.044 0-.273.383-.51.85m252.287-.433c-.003.183.06.483.138.667.183.424.183-.014 0-.584-.107-.335-.134-.351-.138-.083M268.363 47c-.006.229.052.717.127 1.083l.138.667v-.583c-.001-.736-.249-1.829-.265-1.167m-264.092.496c-.376.94-.318 1.08.078.188.178-.403.295-.762.259-.799-.037-.036-.188.239-.337.611m202.757-.246c-.002.183.06.483.139.667.182.424.182-.014 0-.584-.108-.335-.135-.351-.139-.083m-132.919.5c.056.367.129.698.163.736.126.143.032-.749-.113-1.069-.105-.233-.12-.132-.05.333m37.986.179c-.061.244-.074.481-.028.527.046.046.134-.117.195-.361s.074-.481.028-.527c-.046-.046-.133.116-.195.361m23.339.165c.224.891.544 1.814.555 1.598.014-.289-.489-2.025-.587-2.025-.041 0-.027.192.032.427m49.344-.15c-.061.062-.107.268-.101.459.01.319.024.315.17-.052.164-.408.13-.606-.069-.407m181.657.306c.137.613.233.746.229.319a1.207 1.207 0 00-.172-.569c-.123-.183-.139-.115-.057.25m10.584-.083c-.008.229.059.529.148.666.205.319.205-.024 0-.666l-.134-.417-.014.417m-33.257.428c-.061.244-.079.476-.04.516.039.039.121-.129.183-.373.061-.244.079-.476.04-.515-.039-.04-.122.128-.183.372m10.675-.172a1.603 1.603 0 00-.089.549c.008.153.08.057.161-.214.157-.526.101-.786-.072-.335m-230.687.244c-.063.197-.076.396-.03.441.045.046.134-.078.197-.275.062-.197.076-.396.03-.441-.046-.046-.134.078-.197.275m72.945-.167c.008.433.271 1.144.277.75a1.97 1.97 0 00-.139-.667c-.087-.204-.141-.236-.138-.083m60 0c.008.433.271 1.144.277.75a1.97 1.97 0 00-.139-.667c-.087-.204-.141-.236-.138-.083m-49.333.333c-.003.23.059.567.138.75l.143.334-.005-.334a3.162 3.162 0 00-.138-.75l-.133-.416-.005.416m-95.603.426c-.062.335-.076.646-.03.692.045.046.134-.191.197-.525.063-.335.077-.646.031-.692-.046-.045-.135.191-.198.525m-37.365 1.074l.023 1.584-1.75.163c-.963.09-1.488.186-1.167.212.321.027 1.146-.009 1.833-.08l1.25-.129.05-.851a8.167 8.167 0 00-.107-1.666c-.139-.73-.153-.649-.132.767m11.734 11.584c.024 7.241.065 13.654.092 14.25.026.595.054-4.842.061-12.084.007-7.241-.034-13.654-.092-14.25-.058-.596-.086 4.842-.061 12.084m98.309-12.827a1.603 1.603 0 00-.089.549c.008.153.08.056.161-.214.157-.526.101-.786-.072-.335m182.261.16c.005.183.065.558.135.833l.128.5.008-.5c.004-.275-.057-.65-.136-.833l-.143-.333.008.333m-243.251.314a1.756 1.756 0 00-.103.575c.007.184.065.142.171-.125.089-.221.135-.48.104-.575-.032-.095-.109-.039-.172.125m145.248 18.404c-.019 12.444.028 18.684.138 18.615.192-.118.199-32.508.008-35.5-.065-1.008-.13 6.59-.146 16.885m74.734-18.206c-.062.244-.08.476-.04.515.039.04.121-.128.182-.372.062-.244.08-.476.04-.516-.039-.039-.121.129-.182.373m10.675-.172a1.604 1.604 0 00-.09.549c.008.153.081.056.161-.214.158-.526.102-.786-.071-.335m-338.844.496c-.36.861-.313.958.093.19.186-.352.299-.679.252-.726-.047-.047-.202.194-.345.536m362.11-.253c.001.23.06.642.13.917l.127.5.003-.5a3.561 3.561 0 00-.13-.917l-.133-.416.003.416m-180.257.75c.053.459.124.865.158.903.117.131.029-.903-.113-1.319-.095-.281-.11-.146-.045.416m-23.684-.154c-.062.244-.074.481-.029.527.046.046.134-.117.195-.361.062-.244.074-.481.028-.527-.045-.046-.133.116-.194.361m10.678-.061a2.88 2.88 0 00-.088.715c.008.184.083.041.167-.316.163-.693.093-1.042-.079-.399m73.019 15.815c.024 8.928.064 17.171.089 18.317.025 1.146.058-5.867.073-15.583.014-9.717-.026-17.96-.089-18.318-.064-.358-.096 6.655-.073 15.584M136.13 51.667c.045.871.11 1.614.143 1.652.111.128.023-2.228-.102-2.736-.068-.275-.086.213-.041 1.084m71.576-1c0 .735.249 1.828.265 1.166.005-.229-.052-.716-.128-1.083l-.138-.667.001.584m-96.28.259c-.063.334-.077.646-.031.691.046.046.135-.19.198-.524.062-.335.076-.646.03-.692-.045-.046-.134.19-.197.525M3.083 50.833c-.062.197-.076.396-.03.442.046.046.134-.078.197-.275s.076-.396.03-.442c-.045-.046-.134.078-.197.275m340.021.188c-.139.695-.004.829.146.146.063-.288.08-.559.038-.601-.043-.043-.125.162-.184.455m-220-.098a1.916 1.916 0 00-.089.632c.011.256.062.198.176-.198.166-.577.098-.916-.087-.434m230.637.318c-.063.334-.077.645-.031.691.046.046.135-.19.197-.525.063-.334.077-.645.031-.691-.046-.046-.135.19-.197.525m13.385 1.092c.048.871.114 1.615.147 1.653.114.131.021-2.236-.107-2.736-.07-.275-.088.212-.04 1.083m-194.033-.407c-.063.334-.081.641-.04.682.04.041.125-.199.188-.534.062-.334.08-.641.04-.682-.041-.041-.126.199-.188.534m204.612.157c-.003.367.052 1.08.121 1.584l.127.916.009-.75c.005-.412-.05-1.125-.121-1.583-.125-.805-.13-.81-.136-.167m-374.943.012c-.061.244-.079.476-.04.516.039.039.121-.129.183-.373.061-.244.079-.476.04-.515-.039-.04-.122.128-.183.372m181.019-.091c-.06.227-.103.638-.094.913.013.398.046.348.164-.25.161-.82.108-1.327-.07-.663m-169.334.226a1.76 1.76 0 00-.103.575c.007.184.065.142.171-.124.089-.221.135-.48.104-.575-.032-.095-.109-.039-.172.124m279.303.27c-.063.288-.078.561-.032.607.046.046.135-.152.199-.44.063-.288.077-.562.031-.608-.045-.045-.135.153-.198.441m49.009.093c-.062.334-.076.645-.03.691.045.046.134-.19.197-.525.063-.334.077-.645.031-.691-.046-.046-.135.19-.198.525m-231.669.497c-.065.516-.08.976-.034 1.021.046.046.136-.339.2-.855.065-.516.08-.975.034-1.021-.046-.046-.136.339-.2.855m11.691-.586c-.06.227-.103.6-.095.829.01.3.057.232.168-.238.169-.722.104-1.251-.073-.591m74.608 1.163l.028 1.583H183.75l-.109-.583-.11-.584.026.667.026.667 6.853.043c8.036.051 7.353.236 7.098-1.918l-.172-1.459.027 1.584M69.083 52.5l-.5.127.5.003c.275.002.688-.057.917-.13l.417-.133-.417.003c-.229.001-.642.06-.917.13m236.364.064a1.756 1.756 0 00-.103.575c.007.184.065.142.171-.125.089-.221.135-.48.104-.575-.032-.095-.109-.039-.172.125m47.968.811c-.06.481-.084 1.137-.054 1.458l.056.584h6.902c5.461 0 6.912-.045 6.946-.213.024-.117.005-.135-.041-.041-.056.112-2.421.17-6.929.17h-6.844l.109-1.416c.12-1.565.026-1.916-.145-.542m-286.082-.542l-.416.134.416.005c.23.002.567-.06.75-.139l.334-.143-.334.005c-.183.003-.52.065-.75.138m140.75 5c0 2.796.048 4.634.107 4.084.059-.55.107-2.388.107-4.084 0-1.696-.048-3.533-.107-4.083-.059-.55-.107 1.288-.107 4.083M2.426 53.593c-.063.334-.077.645-.031.691.046.046.135-.19.198-.525.062-.334.076-.645.03-.691-.045-.046-.134.19-.197.525M66 53.167c-.335.107-.351.134-.083.138.183.003.483-.06.666-.138.425-.183-.013-.183-.583 0m106.767.516c-.061.382-.079.727-.039.767.04.04.125-.238.189-.617s.081-.724.038-.766c-.042-.043-.127.234-.188.616m-158.684-.016c-.063.288-.08.558-.038.601.043.042.126-.163.184-.455.139-.695.004-.83-.146-.146m279.334.5c-.064.379-.079.726-.033.772.045.046.135-.227.199-.606s.079-.726.033-.772c-.045-.046-.135.227-.199.606m11.657-.093c-.063.335-.077.646-.031.692.046.045.135-.191.198-.525.062-.335.076-.646.03-.692-.045-.046-.134.191-.197.525m37.349.516c-.064.516-.08.976-.034 1.021.046.046.136-.339.201-.855.064-.516.079-.975.034-1.021-.046-.046-.136.339-.201.855M62.75 54.324c-.367.174-.592.316-.5.317.227.001 1.543-.614 1.333-.624-.091-.005-.466.134-.833.307m59.7.574a10.55 10.55 0 00-.095 1.5c.015.476.066.304.168-.565.167-1.415.107-2.183-.073-.935m-108.669.106c-.06.227-.103.638-.094.913.013.398.046.348.164-.25.161-.82.108-1.327-.07-.663m-11.691.752c-.065.516-.08.976-.034 1.022.046.046.136-.339.2-.855.065-.516.08-.976.034-1.022-.046-.045-.136.339-.2.855m108.686.452c-.133 1.703-.111 7.357.034 8.709.059.55.107-1.494.107-4.542s-.008-5.542-.017-5.542c-.01 0-.065.619-.124 1.375m-50.195-.852c-1.346.72-2.695 1.744-3.996 3.032L55.25 59.71l1.349-1.234c1.282-1.173 4.029-3.143 4.382-3.143.091 0 .212-.075.269-.166.143-.232.086-.216-.669.189m111.833.868c-.065.687-.082 1.349-.04 1.471.043.122.134-.401.203-1.163.069-.761.087-1.423.04-1.471-.047-.047-.139.476-.203 1.163m132.358-.542a4.847 4.847 0 00-.086.964c.011.24.087.032.169-.463.16-.966.092-1.377-.083-.501m-11.694.896c-.065.607-.081 1.141-.035 1.187.046.046.136-.413.201-1.021.065-.607.081-1.141.035-1.187-.045-.046-.136.414-.201 1.021m84.986 1.172c0 1.1.027 1.528.06.952.032-.577.032-1.477-.001-2-.033-.524-.06-.052-.059 1.048m-35.956-.142c-.134 1.585-.113 6.659.033 7.892.06.504.109-1.352.109-4.125 0-2.773-.008-5.042-.017-5.042-.01 0-.066.574-.125 1.275M13.439 57.44c-.139 1.019-.118 6.13.029 6.96.063.357.115-1.236.115-3.542 0-2.305-.008-4.191-.019-4.191-.01 0-.066.348-.125.773m291.003 1.185c-.129 1.36-.115 3.297.033 4.542.063.535.114-.452.123-2.375.016-3.616.001-3.826-.156-2.167M1.904 61.25c0 2.017.025 2.819.054 1.782a77.24 77.24 0 000-3.666c-.03-.981-.054-.133-.054 1.884m120.326-.833c.001 1.1.028 1.528.06.951.033-.576.033-1.476 0-2-.033-.523-.06-.051-.06 1.049m50.004 1c0 1.466.026 2.044.057 1.283.031-.76.031-1.96-.001-2.666-.031-.706-.056-.084-.056 1.383m120.664-.334c0 1.192.027 1.658.059 1.035.032-.622.032-1.597 0-2.167-.033-.569-.059-.059-.059 1.132m-237.921-.958c-.529.638-.719.934-.526.819.213-.128.953-1.111.836-1.111-.038 0-.177.132-.31.292m18.856-.144l.917.102v17.834l-3.5.088-3.5.089 3.438.036c2.733.029 3.476-.01 3.626-.191.137-.164.177-2.692.146-9.125l-.043-8.897-1-.02-1-.019.916.103m-2.75.19c-.222.099-.084.115.417.048.412-.054.781-.126.819-.159.145-.125-.917-.03-1.236.111m-1.416.329c-.332.214.085.214.583 0l.333-.143-.333-.009a1.198 1.198 0 00-.583.152m-2.523 1.019c-1.386.752-3.741 3.106-3.424 3.423.049.049.202-.13.341-.398.432-.837 2.043-2.301 3.223-2.93.623-.333 1.058-.605.966-.605-.092 0-.589.229-1.106.51m-13.184.023c-.47.719-1.496 2.891-1.238 2.621.042-.044.419-.736.837-1.538.741-1.421.897-1.843.401-1.083m323.896.459a5.63 5.63 0 01-.178 1.125c-.085.298-.09.541-.01.541.183 0 .387-1.316.286-1.849-.056-.3-.081-.253-.098.183m-194.407 1.791c-.038.068-.019.687.042 1.375l.113 1.25.073-1.376c.065-1.22-.011-1.635-.228-1.249m-61.106.805c.005.451.075 1.12.155 1.486.104.476.119.262.052-.75-.103-1.578-.222-1.998-.207-.736m170.692.486c-.006.367.05 1.004.123 1.417.188 1.055.202-.057.016-1.25-.126-.812-.13-.816-.139-.167m11.668.167c-.002.275.057.688.13.917l.134.416-.003-.416a4.705 4.705 0 00-.131-.917l-.127-.5-.003.5m-132.339.333c-.006.367.051.967.126 1.334l.138.666.007-.583a8.762 8.762 0 00-.126-1.333l-.134-.75-.011.666m180.986.348c.009.542.077 1.173.151 1.402.077.241.095-.147.043-.916-.108-1.593-.217-1.866-.194-.486m-301.255-.169c-.061.244-.074.481-.028.527.046.046.134-.116.195-.36.061-.245.074-.482.028-.528-.046-.046-.133.117-.195.361m-38.397.155c-.004.275.057.65.135.833l.144.333-.008-.333a4.784 4.784 0 00-.136-.833l-.127-.5-.008.5M2.032 66c-.004.229.053.754.126 1.167.1.562.136.625.145.25.006-.275-.051-.8-.127-1.167-.086-.417-.14-.511-.144-.25m49.727 1.259c-.062.335-.076.646-.03.692.045.046.134-.191.197-.525.063-.335.077-.646.031-.692-.046-.045-.135.191-.198.525m10.991-.092c-.063.288-.078.561-.032.607.046.046.135-.153.199-.441.063-.288.077-.561.031-.607-.045-.046-.135.153-.198.441M111.029 67c-.005.229.052.717.128 1.083l.138.667-.001-.583c0-.736-.249-1.829-.265-1.167m72.654.347c.009.313.079.757.156.986.09.269.105.092.044-.5-.108-1.048-.224-1.33-.2-.486m121.336-.18c-.008.229.059.529.148.666.205.319.205-.024 0-.666l-.134-.417-.014.417m37.344.083c-.006.183.052.633.127 1 .116.561.138.587.138.167-.001-.584-.25-1.68-.265-1.167m-219.66.25a3.21 3.21 0 00.13.833c.18.561.18-.045 0-.75-.114-.449-.127-.457-.13-.083m-108.675.083c-.002.184.06.484.139.667.182.425.182-.013 0-.583-.108-.335-.135-.352-.139-.084m279.342.334c.001.183.06.558.13.833.114.449.128.458.13.083a3.21 3.21 0 00-.13-.833c-.105-.326-.133-.345-.13-.083m-120.667.416c.002.23.06.642.13.917l.128.5.003-.5a3.56 3.56 0 00-.131-.917l-.133-.416.003.416m180.975.181c.007.221.08.553.163.736.105.232.12.131.05-.333-.118-.774-.23-.985-.213-.403m-351.235.403c.056.366.129.698.162.736.127.143.032-.75-.113-1.07-.105-.232-.12-.131-.049.334m60.12 1.25c0 1.054.027 1.485.06.958.033-.527.033-1.39 0-1.917-.033-.527-.06-.096-.06.959M305.357 68.5c0 .137.064.4.143.583.09.21.143.241.143.084 0-.138-.064-.4-.143-.584-.09-.21-.143-.241-.143-.083M51.42 70.208c-.062.94-.048 2.196.03 2.792.118.895.144.599.152-1.708.011-3.232-.026-3.455-.182-1.084m-37.072-1.291c-.005.183.063.445.152.583.214.331.214-.085 0-.583l-.143-.334-.009.334m97.019.416c0 .23.06.605.133.834l.133.416v-.416c0-.229-.06-.604-.133-.834l-.133-.416v.416m11.652 0c-.008.23.059.529.148.667.205.318.205-.024 0-.667l-.134-.416-.014.416m60.984-.069c.001.176.078.432.171.569.124.183.139.115.058-.25-.137-.612-.233-.746-.229-.319m158.692.236c-.003.229.06.567.138.75l.144.333-.005-.333a3.158 3.158 0 00-.139-.75l-.133-.417-.005.417m-49 .25c.003.183.065.521.138.75l.134.417.005-.417a2.218 2.218 0 00-.139-.75l-.143-.333.005.333m60.308.181c.001.175.078.431.171.569.124.183.139.115.058-.25-.137-.613-.233-.746-.229-.319m-351.308.236c.008.433.271 1.144.277.75a1.96 1.96 0 00-.139-.667c-.087-.204-.141-.236-.138-.083m170.333 0c.009.433.271 1.144.277.75a1.959 1.959 0 00-.138-.667c-.088-.204-.142-.236-.139-.083m-49.671.5c0 .137.064.4.143.583.09.21.143.241.143.083 0-.137-.064-.4-.143-.583-.09-.21-.143-.241-.143-.083M306 70.56c0 .181 1.161 2.44 1.254 2.44.046 0-.189-.544-.521-1.208-.625-1.247-.733-1.429-.733-1.232m-290.993.128c-.015.22.517 1.344.598 1.262.047-.047-.066-.374-.252-.726s-.342-.594-.346-.536m96.688.312c.008.433.271 1.144.277.75a1.97 1.97 0 00-.139-.667c-.087-.204-.141-.236-.138-.083m231.333 0c.009.433.271 1.144.277.75a1.969 1.969 0 00-.138-.667c-.088-.204-.142-.236-.139-.083m-49.005.167c0 .137.065.4.144.583.09.21.143.241.143.083 0-.137-.065-.4-.143-.583-.091-.21-.144-.241-.144-.083m-291 .333c0 .137.065.4.144.583.09.21.143.241.143.084 0-.138-.065-.4-.143-.584-.091-.21-.144-.241-.144-.083m170.334.083c0 .184.064.484.143.667l.143.333v-.333c0-.183-.064-.483-.143-.667l-.143-.333v.333m-49.679.188c-.022.365 1.245 3.162 1.506 3.323.077.048-.147-.535-.5-1.295a98.03 98.03 0 01-.817-1.799c-.098-.229-.183-.332-.189-.229m230.989.12c0 .215.706 1.614.864 1.711.087.054-.043-.303-.29-.793-.471-.938-.574-1.104-.574-.918m-338.768.741c.723 1.399 2.661 3.423 3.768 3.934.137.064.062-.017-.167-.18-.955-.68-2.57-2.366-3.122-3.26-.624-1.01-.886-1.281-.479-.494M185 72.23c0 .179.496 1.103.592 1.103.046 0-.041-.243-.192-.541-.31-.609-.4-.736-.4-.562m158.348.103c.005.138.073.4.152.584l.143.333.009-.333a1.202 1.202 0 00-.152-.584c-.144-.222-.161-.222-.152 0m-280.679.348c.002.221.077.515.167.652.115.176.132.077.056-.333-.131-.719-.226-.854-.223-.319m49.433.069c.137.613.232.746.229.319a1.219 1.219 0 00-.172-.569c-.123-.183-.139-.115-.057.25m195.713 1.1c.898 1.378 3.632 3.483 4.522 3.483.114 0-.328-.268-.982-.595-1.154-.577-2.588-1.807-3.582-3.071-.42-.534-.416-.519.042.183m-13.044-.183c.156.627.535 1.451.536 1.166.001-.137-.143-.55-.319-.916-.176-.367-.274-.479-.217-.25m-182.423 0c.005.137.073.4.152.583l.143.333.009-.333a1.198 1.198 0 00-.152-.583c-.144-.223-.161-.223-.152 0m73.329-.084c-.024.536 3.138 3.658 3.419 3.376.049-.048-.165-.244-.474-.435-.584-.361-2.169-1.966-2.657-2.691-.155-.229-.284-.341-.288-.25m-11.672.25c0 .138.073.363.162.5.143.223.161.223.161 0 0-.137-.072-.362-.161-.5-.144-.222-.162-.222-.162 0m181.778.231c.535.924 2.915 3.127 3.138 2.904.043-.044-.329-.36-.828-.704-.499-.343-1.22-1.031-1.603-1.528-.66-.854-.999-1.177-.707-.672m-11.778.269c0 .138.073.363.162.5.143.223.161.223.161 0 0-.137-.072-.362-.161-.5-.144-.222-.162-.222-.162 0m-292.31.5c.008.433.271 1.145.277.75a1.96 1.96 0 00-.139-.666c-.087-.205-.141-.237-.138-.084m61.076.167c.156.627.535 1.452.536 1.167.001-.138-.143-.55-.319-.917-.176-.367-.274-.479-.217-.25m182.724.569c1.055 2.775 3.782 6.372 6.125 8.077 1.187.864 2.047 1.413 2.047 1.307 0-.044-.506-.408-1.123-.808-2.423-1.571-5.041-4.683-6.47-7.691-.593-1.249-.891-1.704-.579-.885m49.091.214c.25.598.414.868.414.682 0-.18-.506-1.298-.588-1.298-.046 0 .033.277.174.616M4.347 75.417c0 .091.144.429.32.75.175.32.319.508.319.416 0-.091-.144-.429-.319-.75-.176-.321-.32-.508-.32-.416m59.32-.041c0 .411 2.225 2.454 2.44 2.24.05-.05-.132-.206-.403-.347-.272-.14-.841-.641-1.266-1.113-.424-.472-.771-.823-.771-.78m61.839.207c.839 1.239 2.528 2.429 3.411 2.404.183-.005.02-.107-.363-.227-.998-.312-1.781-.838-2.578-1.73-.382-.429-.594-.63-.47-.447m49.161.016c0 1.732 5.12 7.854 7.5 8.966.137.065.065-.018-.161-.182-2.544-1.854-3.806-3.108-5.185-5.151a23.383 23.383 0 01-1.439-2.498c-.532-1.122-.715-1.412-.715-1.135m-122.653.734c.005.138.074.4.153.584l.143.333.009-.333a1.202 1.202 0 00-.152-.584c-.144-.222-.161-.222-.153 0m61.326.292c.01.167.644 1.321.653 1.187.012-.172-.491-1.312-.579-1.312-.044 0-.078.056-.074.125m91.538-.019c.273.08.291.384.25 4.113l-.045 4.027-.471.225c-.259.124-.434.262-.39.306.044.045.314-.04.599-.187l.518-.268-.044-4.117c-.043-3.978-.056-4.118-.378-4.152-.265-.027-.273-.016-.039.053m-174.795.239c-.253.117-.203.131.209.058l.541-.096v4.337c0 4.293-.003 4.34-.37 4.597-.204.142-.298.257-.208.254.71-.024.745-.251.745-4.888 0-4.836.029-4.701-.917-4.262m291.084-.004c-.183.123-.115.139.25.057.612-.137.746-.232.319-.229a1.215 1.215 0 00-.569.172m52.583-.008c-.321.138-.32.144.032.155.201.007.411-.063.468-.155.122-.197-.041-.197-.5 0m-368.35.75c.976 2.018 3.52 4.991 5.341 6.244 1.047.72.957.496-.12-.299-1.471-1.087-2.947-2.691-4.104-4.461a819.197 819.197 0 00-1.31-2c-.116-.174-.028.058.193.516m369.672 3.167c0 2.2.024 3.077.053 1.949a93.545 93.545 0 00-.001-4c-.029-1.072-.052-.149-.052 2.051m-172.155-3.583c-.322.138-.321.143.031.155.201.006.412-.064.469-.155.122-.197-.042-.197-.5 0m-181.25.333c.137.089.4.157.583.152l.333-.009-.333-.143c-.498-.214-.915-.214-.583 0m5.916 0l-.5.127.5.017c.275.01.613-.055.75-.144.31-.2.037-.2-.75 0m174 0l-.333.143h.333c.184 0 .484-.064.667-.143l.333-.143h-.333c-.183 0-.483.064-.667.143m111.25-.008c.138.093.394.171.57.172.426.004.293-.092-.32-.229-.365-.082-.432-.066-.25.057m5.834.008c-.57.12-.572.123-.084.133.275.006.65-.054.834-.133.4-.172.068-.172-.75 0m26.916.333c.143.275.296.5.342.5.046 0-.033-.225-.175-.5s-.296-.5-.342-.5c-.046 0 .033.225.175.5m25.75-.333l-.416.133.416.015c.23.007.53-.059.667-.148.318-.206-.024-.206-.667 0m-347.65.366c.489.103 1.184.103 1.917.002 1.147-.158 1.144-.159-.767-.16-1.645-.002-1.808.021-1.15.158m42.817-.04c.137.093.394.17.569.171.427.004.294-.092-.319-.229-.365-.081-.433-.066-.25.058m124.583.007c.184.079.446.144.584.144.157 0 .126-.053-.084-.144a1.854 1.854 0 00-.583-.143c-.158 0-.127.053.083.143m8.75 0c-.565.119-.568.123-.083.128.275.003.688-.054.917-.128.546-.175-.002-.175-.834 0m114.95.037c.525.093 1.314.093 2 0 1.091-.147 1.058-.152-.866-.153-1.731 0-1.884.021-1.134.153m46.05-.037c.138.089.4.158.584.153l.333-.009-.333-.144c-.499-.214-.915-.214-.584 0m8.75 0l-.5.128.5.008c.275.004.65-.057.834-.136l.333-.143-.333.008a4.766 4.766 0 00-.834.135m-177.083.335c.412.131 2.12.221 1.986.105-.038-.033-.594-.1-1.236-.148-.678-.052-.992-.034-.75.043m4.333-.001l-1.083.109 1 .019c.55.011 1.3-.043 1.667-.119l.666-.138-.583.01c-.321.005-1.071.059-1.667.119m165.417-.001c.316.136 2.05.234 1.903.107-.038-.033-.557-.103-1.153-.156-.671-.059-.956-.04-.75.049m4.417.001l-1.25.106 1.25.014c.687.007 1.437-.047 1.666-.12l.417-.134-.417.014c-.229.007-.979.061-1.666.12m-313.848.546c.234.615.673 1.454.761 1.454.086 0-.663-1.638-.822-1.798-.062-.061-.034.093.061.344m293.463.3c.166.282.408.601.538.708.13.108.026-.123-.23-.513-.54-.818-.753-.953-.308-.195m-231.699.154c.143.275.296.5.342.5.046 0-.033-.225-.175-.5s-.296-.5-.342-.5c-.046 0 .033.225.175.5m-28.233.93c.009.726.076 1.732.148 2.236.084.581.1.124.045-1.25-.098-2.412-.219-3.031-.193-.986m28.896.153c1.034 1.68 2.974 3.698 4.28 4.451.464.268.488.271.146.018-1.311-.964-2.541-2.161-3.412-3.319-1.123-1.495-1.462-1.879-1.014-1.15m232.04.167c.936 1.343 3.91 3.866 5.381 4.564.412.196.606.261.431.146l-1.777-1.169c-.902-.594-2.014-1.546-2.92-2.5-.805-.848-1.307-1.316-1.115-1.041m-293.366.375c1.018 1.603 2.505 3.141 3.83 3.964.657.407.537.285-.667-.682-1.235-.992-2.104-1.916-2.772-2.949-.282-.435-.551-.792-.598-.792-.046 0 .046.207.207.459m94.092.555c.007.588.076 1.407.154 1.82.097.511.113.193.05-1-.102-1.967-.222-2.449-.204-.82m-61.329 3.167c.009.405.08.924.157 1.153.088.261.104.012.044-.667-.111-1.268-.225-1.542-.201-.486m-74.766.081c.373.297 1.703.999 2.382 1.257.713.271.386.068-1.216-.753-.825-.424-1.35-.65-1.166-.504m136.511.946l.081 1.123-11.546.044-11.546.044 11.547.041c9.711.034 11.561.004 11.635-.191.049-.126.012-.67-.082-1.208l-.171-.977.082 1.124m34.072-.8c0 .046.225.2.5.342.275.143.5.221.5.176 0-.046-.225-.2-.5-.342-.275-.143-.5-.221-.5-.176m-124.167.338c0 .097.933.588 1.117.587.073 0-.112-.15-.412-.333-.558-.341-.705-.393-.705-.254m61.899.058c.122.197 2.483 1.2 2.798 1.188.121-.004-.238-.184-.798-.4a20.315 20.315 0 01-1.56-.672c-.298-.154-.496-.206-.44-.116m63.435.244c0 .115 2.191.983 2.273.901.037-.037-.329-.22-.812-.408-.483-.188-1.009-.394-1.17-.459-.16-.065-.291-.08-.291-.034m169.855.03c.141.14 1.311.596 1.311.51 0-.046-.271-.197-.603-.335-.615-.257-.847-.315-.708-.175m-152.189.756c-.331.214.085.214.584 0l.333-.144-.333-.009a1.203 1.203 0 00-.584.153m169.834.007c-.183.124-.115.139.25.058.612-.137.746-.233.319-.229a1.203 1.203 0 00-.569.171M16.083 86.5c.184.079.446.143.584.143.157 0 .126-.053-.084-.143a1.827 1.827 0 00-.583-.143c-.158 0-.127.053.083.143m45.834 0c.275.07.687.127.916.127.372 0 .363-.014-.083-.127a4.526 4.526 0 00-.917-.127c-.371 0-.362.014.084.127m24.984-.001c-.105.105-4.305.181-11.575.209l-11.409.044 11.438.041c9.997.035 11.464.009 11.645-.21.232-.279.158-.341-.099-.084m36.766.001c.229.073.604.133.833.133h.417l-.417-.133a3.304 3.304 0 00-.833-.133h-.417l.417.133m62.75 0c.183.079.483.143.666.143h.334l-.334-.143a2.016 2.016 0 00-.666-.143h-.334l.334.143m13.5 0l-.334.143h.334c.183 0 .483-.064.666-.143l.334-.143h-.334c-.183 0-.483.064-.666.143m107.166 0c.499.214.915.214.584 0a1.202 1.202 0 00-.584-.152l-.333.009.333.143m48.931-.107c.038.033.294.11.569.172.365.082.433.066.25-.057-.225-.153-.986-.259-.819-.115m13.819.115c-.182.123-.115.139.25.057.613-.137.746-.233.32-.229a1.211 1.211 0 00-.57.172m-352.5.325c.57.183 1.008.183.584 0a1.969 1.969 0 00-.667-.138c-.268.004-.252.031.083.138m9.75 0l-.333.144h.333c.184 0 .484-.065.667-.144l.333-.143h-.333c-.183 0-.483.065-.667.143m160.75 0c.23.074.567.136.75.139l.334.005-.334-.144a2.213 2.213 0 00-.75-.138l-.416.005.416.133m10.334 0c-.561.18.045.18.75 0 .449-.114.457-.127.083-.13a3.21 3.21 0 00-.833.13m62.041-.042c1.536.028 4.048.028 5.584 0 1.535-.027.279-.05-2.792-.05-3.071 0-4.327.023-2.792.05m48.209.042c.183.079.483.144.666.144h.334l-.334-.144a2.042 2.042 0 00-.666-.143h-.334l.334.143m9.833 0c-.425.183.013.183.583 0 .335-.107.352-.134.084-.138a1.959 1.959 0 00-.667.138m39.417 0c.229.074.566.134.75.134.264 0 .246-.028-.084-.134a3.023 3.023 0 00-.75-.133c-.264 0-.246.028.084.133m10.333 0c-.56.18.045.18.75 0 .449-.114.458-.127.083-.13a3.21 3.21 0 00-.833.13m-348.833.363c.412.062 1.912.113 3.333.113 1.421 0 2.921-.051 3.333-.113.413-.062-1.087-.113-3.333-.113-2.246 0-3.746.051-3.333.113m170.916-.002c1.044.138 4.81.135 6.25-.005.596-.058-.754-.106-3-.106-2.245 0-3.708.05-3.25.111m120.25.002c.959.144 5.491.142 6.584-.002.458-.061-1.005-.111-3.25-.111-2.246 0-3.746.051-3.334.113M360 87.192c.504.06 1.892.108 3.083.108 1.192 0 2.579-.048 3.084-.108.504-.06-.884-.109-3.084-.109s-3.587.049-3.083.109"/><path fill="#7c7c7c" d="M390.295 13.287c.299.038.749.037 1-.001.25-.038.005-.069-.545-.068-.55.001-.755.032-.455.069m-1.628.221c-.183.123-.115.139.25.057.612-.137.746-.233.319-.229a1.204 1.204 0 00-.569.172m3.514-.115c.038.033.294.11.569.172.365.082.433.066.25-.057-.225-.153-.987-.259-.819-.115m1.166.329c.289.229 1.64.892 1.562.766-.103-.167-1.309-.821-1.513-.821-.065 0-.087.024-.049.055m-6.597.645c-.783.558-1.418 1.172-1.776 1.716-.274.416-.251.404.14-.071.258-.314.909-.895 1.446-1.291.537-.397.912-.719.833-.716-.078.003-.368.166-.643.362m3.458.254c.344.036.907.036 1.25 0 .344-.036.063-.065-.625-.065-.687 0-.968.029-.625.065m-1.666.294c-.298.13-.542.273-.542.318 0 .081 1.179-.367 1.319-.501.146-.138-.258-.043-.777.183m3.791-.082c.138.089.363.162.5.162.223 0 .223-.018 0-.162a1.096 1.096 0 00-.5-.161c-.222 0-.222.018 0 .161m3.493.542c.409.435.765.792.792.792.125 0-.007-.15-.743-.841l-.792-.743.743.792m-2.33-.087c.95.68 1.558 1.318 2.015 2.116.512.891.676.941.225.069-.381-.736-1.551-1.959-2.144-2.24l-.509-.241.413.296m-6.572.779c-.724.724-1.273 1.618-1.494 2.433-.063.229.119-.05.403-.621.284-.571.865-1.378 1.291-1.792.427-.415.721-.754.655-.754-.067 0-.451.331-.855.734m1.101.808c.023.489.032.498.093.093.052-.335.182-.465.517-.516.405-.062.396-.071-.093-.094-.51-.023-.541.007-.517.517m1.602-.424c.207.04.507.039.667-.003.159-.042-.011-.074-.377-.073-.367.002-.497.036-.29.076m1.554-.057c.038.033.403.103.81.155.48.061.656.041.5-.058-.222-.141-1.467-.233-1.31-.097m2.037.61c.236.186.478.492.537.68.06.187.145.304.19.26.206-.207-.629-1.258-1.009-1.272-.081-.003.046.147.282.332m-3.685.529c-.11.11-.2.62-.2 1.134 0 .513.09 1.023.2 1.133.223.223 1.933.27 2.26.062.115-.073-.335-.129-1-.123l-1.21.011v-2.167l1.21.011c.665.006 1.115-.049 1-.122-.327-.208-2.037-.162-2.26.061m-1.455 3.55l.005 3.5h1.334l.083-1.792c.046-.985.03-1.792-.036-1.791-.065 0-.14.769-.167 1.708l-.047 1.709-.538.052-.539.052-.05-3.469-.05-3.469.005 3.5m4.302-2.929c.147.391.146.641-.005 1.054-.179.49-.175.511.047.218.313-.413.316-1.326.005-1.584-.207-.172-.214-.128-.047.312m-255.936-.043c-.061.061-.113 4.767-.116 10.458-.006 11.148.053 10.429-.76 9.348-.137-.184-.082-.014.123.378.706 1.345.723 1.129.769-9.772l.043-10.365 5.582.046c3.07.025 5.582-.01 5.582-.079 0-.154-11.068-.168-11.223-.014m247.337.119c-.063.164-.11.422-.104.575.007.184.065.142.172-.124.088-.221.135-.48.103-.575-.032-.095-.109-.039-.171.124m12.247.27c.009.433.271 1.144.277.75a1.969 1.969 0 00-.138-.667c-.088-.204-.142-.236-.139-.083m1.722 2.011c0 1.18.051 2.016.113 1.859.154-.39.162-3.573.009-3.812-.067-.105-.122.773-.122 1.953m-14.194-.011c0 .688.029.969.065.625a7.247 7.247 0 000-1.25c-.036-.344-.065-.062-.065.625m1.667 0c0 .688.029.969.065.625a7.247 7.247 0 000-1.25c-.036-.344-.065-.062-.065.625m8.623-.987c-.018.363-.67.943-1.312 1.167-.62.216-.675.555-.187 1.153l.34.417-.267-.547c-.317-.648-.248-.808.413-.953.53-.116 1.248-.953 1.11-1.294-.053-.132-.088-.112-.097.057m-2.366 3.279c1.116 1.776 1.131 1.792 1.823 1.843.68.05.988-.269.532-.55-.094-.059-.122.008-.065.156.076.199-.018.259-.407.259-.645 0-.786-.15-1.872-1.985-.494-.833-.951-1.515-1.017-1.515-.066 0 .387.806 1.006 1.792m4.603-.792c-.063.288-.077.561-.031.607.045.046.135-.152.198-.44.063-.288.078-.562.032-.608-.046-.045-.135.153-.199.441m-12.405.282c-.006.201.064.411.155.468.197.122.197-.041 0-.5-.138-.321-.143-.32-.155.032m1.66-.115c0 .137.073.362.162.5.144.222.162.222.162 0 0-.138-.073-.363-.162-.5-.144-.223-.162-.223-.162 0m7.674.75c.206.366.446.741.534.833.249.262-.321-.794-.631-1.167-.152-.183-.109-.033.097.334m4.184.721c-.475 1.05-1.368 2.078-2.424 2.789-.468.315-.79.573-.716.573.84 0 4.031-3.635 3.583-4.083-.044-.045-.244.28-.443.721m-11.524-.588c-.01.247.47 1.056.769 1.295.242.195.233.147-.047-.262-.189-.275-.427-.65-.53-.833-.103-.183-.189-.273-.192-.2m9.576.908c-.16.252-.488.684-.728.959l-.437.5.557-.5c.488-.438 1.155-1.417.967-1.417-.038 0-.199.206-.359.458m-10.915-.022c0 .75 3.135 3.439 3.952 3.389.072-.004-.281-.223-.785-.485-1.012-.527-2.367-1.766-2.757-2.521-.236-.455-.41-.618-.41-.383m2.75 1.162c.499.419 1.417.967 1.417.847 0-.035-.338-.277-.75-.537-.413-.261-.75-.535-.75-.608 0-.073-.094-.131-.208-.127-.115.003.016.194.291.425m1.75 1.069c.138.089.363.161.5.161.223 0 .223-.018 0-.161a1.098 1.098 0 00-.5-.162c-.222 0-.222.018 0 .162m3.334 0c-.223.143-.223.161 0 .161.137 0 .362-.072.5-.161.222-.144.222-.162 0-.162-.138 0-.363.073-.5.162m-1.872.287c.299.037.749.036 1-.002.25-.038.005-.068-.545-.067-.55.001-.755.032-.455.069m-1.628 1.046c.137.089.437.155.666.148l.417-.015-.417-.133c-.642-.206-.985-.206-.666 0m3.583 0c-.461.117-.468.129-.083.144.229.01.529-.055.666-.144.284-.183.137-.183-.583 0m-1.708.282c.16.041.423.041.583 0 .16-.042.029-.077-.292-.077s-.452.035-.291.077m-323.792 5.7c-.367.056.796.101 2.583.101 1.788 0 2.913-.05 2.5-.112-.908-.137-4.159-.129-5.083.011m58.083.021c-.259.085-.038.101.584.044.55-.051 1.031-.12 1.069-.153.135-.117-1.241-.026-1.653.109m2.681-.11c.038.033.557.101 1.153.151.65.055.916.037.666-.043-.411-.133-1.954-.224-1.819-.108m-105.597.422c-.367.056.599.102 2.146.102 1.554 0 2.524-.052 2.167-.116-.77-.137-3.373-.129-4.313.014m42.416.018c-.56.18.045.18.75 0 .449-.114.458-.127.084-.13a3.225 3.225 0 00-.834.13m9.084 0c.275.07.65.131.833.136l.333.008-.333-.144c-.183-.078-.558-.139-.833-.135l-.5.008.5.127m50.083.008c-.183.123-.115.139.25.057.613-.137.746-.232.319-.229a1.222 1.222 0 00-.569.172m6.347-.114c.038.032.295.11.57.171.365.082.432.066.25-.057-.225-.152-.987-.259-.82-.114m59.351.081c-.212.06.898.109 2.467.109 1.568 0 2.68-.049 2.469-.109-.211-.059-1.321-.108-2.467-.108-1.146 0-2.257.049-2.469.108M313 33.814c-.321.056.64.103 2.134.103 1.495 0 2.545-.049 2.334-.109-.484-.136-3.688-.132-4.468.006m46.032-.006c-.212.06.899.109 2.468.109s2.68-.049 2.468-.109c-.211-.059-1.322-.108-2.468-.108s-2.257.049-2.468.108m-339.282.366c-.232.106-.131.121.333.05.367-.056.698-.129.736-.163.144-.126-.749-.032-1.069.113m7.431-.115c.038.033.331.108.652.167.411.075.51.058.334-.057-.226-.148-1.152-.251-.986-.11m35.652.11c-.176.115-.077.132.334.057.718-.132.854-.227.319-.223-.221.001-.515.076-.653.166m12.25-.002c.184.078.446.143.584.143.157 0 .126-.053-.084-.143a1.832 1.832 0 00-.583-.144c-.158 0-.127.053.083.144m46.408.507c-.692.365-1.517.891-1.833 1.169-.528.463-.507.457.262-.074.46-.318 1.396-.847 2.079-1.174.683-.327 1.131-.593.996-.59-.135.003-.812.304-1.504.669m10.426-.134c.57.303 1.533 1.067 2.24 1.776.683.684 1.072 1.005.864.714-.87-1.222-3.26-3.047-3.961-3.026-.079.003.307.244.857.536m55.583-.373c-.318.205.024.205.667 0l.416-.134-.416-.014c-.229-.008-.53.059-.667.148m7.667 0c.642.205.985.205.666 0-.137-.089-.437-.156-.666-.148l-.417.014.417.134m115.583 0l-.333.143.333-.008c.183-.005.558-.065.833-.135l.5-.128-.5-.008c-.275-.004-.65.057-.833.136m7.917 0c.57.182 1.008.182.583 0a1.96 1.96 0 00-.667-.139c-.268.004-.251.031.084.139m38.666.002c-.176.115-.077.132.334.057.718-.132.854-.227.319-.223-.221.001-.515.076-.653.166m7.667-.002c.642.205.985.205.667 0-.138-.089-.438-.156-.667-.148l-.417.014.417.134m-132.557.125c-.043.068-.018.875.054 1.791l.132 1.667-.004-1.667-.004-1.666 12.064-.085 12.065-.085-12.115-.04c-6.664-.022-12.15.016-12.192.085m-214.11.208c-.331.214.085.214.584 0l.333-.143-.333-.009a1.202 1.202 0 00-.584.152m10.417 0c.459.197.622.197.5 0-.057-.092-.267-.161-.468-.155-.352.011-.353.017-.032.155m48.083.23c.504.21 1.161.509 1.459.664.298.155.541.237.541.183 0-.135-2.423-1.245-2.697-1.237-.121.004.193.18.697.39m109.5-.23c-.331.214.085.214.584 0l.333-.143-.333-.009a1.202 1.202 0 00-.584.152m72.079.158c.639.178 1.19.295 1.225.261.078-.078-1.032-.384-1.813-.499-.316-.047-.051.06.588.238m51.088-.15c-.183.123-.115.139.25.057.613-.137.746-.233.319-.229a1.207 1.207 0 00-.569.172m-279.458.503l.625.33v4.213c0 3.141-.053 4.269-.209 4.434-.168.178-.16.206.042.144.212-.065.257-.711.297-4.229.053-4.694.047-4.743-.575-5.028-.727-.333-.867-.226-.18.136m154.833.087c-.481.226-.875.444-.875.485 0 .096.386-.056 1.32-.52 1.03-.511.655-.482-.445.035m136.336-.085l.628.331-.045 4.286c-.048 4.687.031 4.373-1.044 4.129-.38-.086-.435-.072-.229.06.148.096.523.194.833.219l.563.045.044-4.375.045-4.376-.545-.332c-.299-.183-.619-.329-.711-.325-.092.003.116.156.461.338m33.831-.082c-.298.13-.542.275-.542.322 0 .087 1.169-.367 1.311-.508.142-.142-.219-.055-.769.186m-339 .333c-.79.346-.662.423.208.127.412-.141.75-.286.75-.323 0-.127-.415-.042-.958.196m289.835.66c-1.016.508-1.949 1.046-2.071 1.194-.122.149.115.057.527-.204.413-.26 1.425-.794 2.25-1.186.825-.391 1.42-.715 1.322-.72-.098-.004-1.011.408-2.028.916m-247.188-.319c-.309.135-.522.284-.474.332.048.048.375-.065.728-.251.738-.39.574-.442-.254-.081m139.978-.212c0 .033.431.327.958.653 1.021.633 2.413 1.893 3.446 3.121.475.565.536.606.245.166-.9-1.362-4.649-4.539-4.649-3.94m62.014.002c.171.154 1.152.605 1.152.53 0-.096-.924-.592-1.103-.592-.065 0-.088.028-.049.062m107.911.069c.087.072.578.411 1.091.753 1.178.785 2.8 2.423 3.745 3.781.871 1.252 1.1 1.487.604.62-.923-1.61-2.757-3.521-4.562-4.753-.69-.47-1.3-.749-.878-.401M79 35.713c.046.049.536.422 1.089.828 1.098.806 2.242 2.072 3.053 3.376.285.458.52.768.521.689.016-.714-3.036-4.111-4.246-4.727-.275-.14-.463-.215-.417-.166m103.327.855c-1.829 1.298-4.114 3.673-4.904 5.099-.224.403.117.012.945-1.084 1.04-1.376 3.185-3.39 4.43-4.158.569-.351 1.035-.666 1.035-.699 0-.171-.367.034-1.506.842M353 36.015c-.277.226-.305.283-.083.168.543-.281.845-.511.666-.51-.091.001-.354.154-.583.342m-295.542.247c-.623.338-.585.479.042.155.275-.143.5-.294.5-.338 0-.107-.018-.101-.542.183m205.042.174c.321.252 1.104.988 1.74 1.636.636.648.999.953.805.678-.469-.667-1.821-1.943-2.545-2.402l-.583-.37.583.458m-249.621.547c-.553.358-1.052.725-1.109.817-.091.148 1.949-1.13 2.191-1.372.249-.249-.168-.035-1.082.555m105.101.309c-.916.948-1.968 2.224-2.231 2.708-.194.357-.061.211.834-.917a31.08 31.08 0 011.641-1.875c.467-.481.811-.875.765-.875-.045 0-.5.432-1.009.959m233.927-.575c-1.047.753-2.234 1.838-2.922 2.672-.53.642-.311.479.86-.643.865-.827 1.834-1.704 2.155-1.95.701-.537.628-.598-.093-.079m-295.615.182c-.475.36-.444 7.768.031 7.768.178 0 .375-.083.438-.185.077-.124-.002-.148-.24-.072-.575.182-.555-7.063.021-7.464.206-.144.3-.263.208-.265-.092-.002-.298.096-.458.218m246.625.809c-.275.2-.538.404-.584.453a56.47 56.47 0 01-.996.922 23.494 23.494 0 00-1.494 1.5c-.32.367.091.027.913-.755.822-.783 1.794-1.661 2.161-1.953.756-.602.756-.718 0-.167M9.695 39.625c-.896.894-1.8 1.887-2.01 2.208-.252.387-.142.303.328-.25.389-.458 1.344-1.452 2.121-2.208.777-.756 1.363-1.375 1.302-1.375-.062 0-.845.731-1.741 1.625M232.798 62.75c.026 12.925.081 23.595.121 23.711.057.165 1.284.201 5.702.166l5.629-.044.042-21.622.043-21.621 3.749-.05 3.75-.05-3.792.005-3.792.005-.042 21.625-.043 21.625H233l-.02-21.375c-.011-11.756-.067-22.388-.125-23.625-.058-1.238-.083 8.325-.057 21.25m115.169-22.125c-.435.505-1.666 2.398-1.602 2.463.034.034.482-.572.995-1.347.942-1.422 1.065-1.648.607-1.116m-233.05.708c-.143.275-.221.5-.176.5.046 0 .2-.225.342-.5.143-.275.221-.5.176-.5-.046 0-.2.225-.342.5m90.035.911c.338.684.642 1.217.676 1.184.074-.074-1.101-2.428-1.212-2.428-.044 0 .197.56.536 1.244m93.683-.202c-.516.64-1.497 2.16-1.263 1.958.157-.136 1.952-2.667 1.891-2.667-.031 0-.313.319-.628.709m76.149.203c.246.502.475.884.51.85.075-.075-.766-1.762-.878-1.762-.044 0 .122.411.368.912m-107.82.18c.154.417.302.693.329.613.053-.16-.421-1.371-.537-1.371-.04 0 .053.341.208.758m-200.839-.471c.298.037.785.037 1.083 0 .298-.037.054-.067-.541-.067-.596 0-.84.03-.542.067m-2.708.213l-.5.127h.5a4.89 4.89 0 001-.127l.5-.128h-.5c-.275 0-.725.058-1 .128m5.166 0c.184.078.521.141.75.138l.417-.005-.417-.133a3.15 3.15 0 00-.75-.139l-.333-.005.333.144m121.215-.03c-.157.062.368.117 1.167.122.828.005 1.273-.042 1.035-.109-.538-.151-1.835-.159-2.202-.013m169.78.018a3.349 3.349 0 00-.834.329c-.323.205-.323.206.006.093.904-.313 1.751-.427 2.583-.347.62.059.782.041.5-.055-.509-.173-1.574-.183-2.255-.02M61.667 42.5c-.335.107-.352.134-.084.138.184.003.484-.059.667-.138.425-.183-.013-.183-.583 0m131.609.375c1.039.667 1.671 1.386 2.452 2.792.736 1.325.808 1.177.086-.178-.685-1.286-1.479-2.192-2.384-2.722-1.05-.616-1.16-.538-.154.108m-16.687.056c-.155.237-.244.469-.198.516.046.046.204-.148.351-.432.324-.626.235-.676-.153-.084m-116.172-.098l-.334.144.334.009c.183.005.445-.064.583-.153.331-.214-.085-.214-.583 0m10.25-.109c0 .036.305.267.677.513.93.616 1.574 1.352 2.094 2.394.242.484.475.845.517.802.153-.152-.884-1.834-1.559-2.528-.587-.605-1.729-1.385-1.729-1.181m43.25.552c-.14.334-.216.647-.169.694.047.047.085.045.085-.005 0-.05.114-.363.253-.695.138-.332.214-.603.168-.603-.045 0-.197.274-.337.609m73.802-.068c-.998.864-2.331 2.625-1.987 2.625.048 0 .284-.335.524-.745.24-.41.849-1.122 1.354-1.583 1.014-.928 1.097-1.151.109-.297m170.012-.166c-1.124.842-2.637 3.025-2.976 4.291-.061.23.206-.221.593-1 .511-1.03 1.01-1.723 1.827-2.541.618-.619 1.109-1.125 1.09-1.125-.018 0-.259.168-.534.375m5.775.118c.318.271.644.496.725.5.082.004-.135-.218-.481-.493-.812-.646-.997-.651-.244-.007m-233.964-.207c.252.038.664.038.916 0s.046-.07-.458-.07-.71.032-.458.07m-106.779.192c-.268.058.703.106 2.157.106 1.518.001 2.364-.048 1.987-.115-.8-.142-3.473-.136-4.144.009m104.948.182c-.642.292-2.46 1.813-2.327 1.946.031.031.436-.309.899-.756.504-.485 1.202-.95 1.738-1.156.493-.189.783-.346.646-.349-.138-.002-.568.139-.956.315m4.206.093c.458.24 1.207.788 1.663 1.217.457.429.644.558.417.288-.789-.938-1.728-1.627-2.497-1.831-.229-.061-.042.086.417.326m181.95-.278c-.211.059.763.109 2.164.11 1.502.002 2.275-.045 1.883-.115-.821-.146-3.527-.143-4.047.005m-292.784.532c-.366.182-.516.285-.333.227.183-.057.577-.174.875-.26.298-.086.542-.191.542-.232 0-.162-.446-.053-1.084.265m7-.174c.184.079.484.141.667.138.268-.004.252-.031-.083-.138-.57-.183-1.008-.183-.584 0m224.75.023c.23.092.699.306 1.044.476.345.17.579.232.521.138-.136-.221-1.405-.799-1.731-.789-.138.004-.063.083.166.175m66.334-.023c.137.089.437.155.666.148l.417-.015-.417-.133c-.642-.206-.985-.206-.666 0m26.408 1.017c-.328.651-.569 1.211-.536 1.244.033.033.337-.499.676-1.184.339-.684.58-1.244.536-1.244-.044 0-.348.533-.676 1.184m-288.033-.602c-.298.13-.542.275-.542.323 0 .103.844-.24 1.075-.436.219-.187.098-.161-.533.113m118.2.602c-.237.467-.403.877-.369.912.034.034.263-.349.509-.85.246-.502.412-.912.369-.912-.043 0-.273.382-.509.85M5.923 44.431c-.156.237-.245.469-.199.516.047.046.205-.148.351-.432.324-.626.235-.676-.152-.084m13.699-.008c-.342.232-.622.458-.622.502 0 .044.3-.119.667-.361.582-.386.779-.564.622-.564-.025 0-.325.19-.667.423m291.211-.076l-.416.34.541-.265c.298-.145.542-.299.542-.343 0-.166-.265-.059-.667.268m-225.814-.014c.008.138.074.438.148.667l.133.417.014-.417c.008-.229-.058-.529-.147-.667-.144-.222-.16-.222-.148 0m211.898.334c-.143.275-.221.5-.176.5.046 0 .2-.225.342-.5.143-.275.221-.5.176-.5-.046 0-.2.225-.342.5m-42.25-.193c0 .106.076.193.17.193.094 0 .469.461.833 1.026.365.564.663.952.663.861 0-.231-.927-1.603-1.329-1.967-.19-.172-.337-.221-.337-.113m13.028.026c.008.433.271 1.144.277.75a1.97 1.97 0 00-.139-.667c-.087-.204-.141-.236-.138-.083m41.708.96c-.466.435-.991.978-1.166 1.207-.175.229.224-.109.886-.75.663-.642 1.206-1.186 1.207-1.209.008-.102-.132.011-.927.752m-291.502.415c-.805.842-1.65 1.886-1.045 1.292.58-.569 2.02-2.167 1.954-2.167-.039 0-.448.394-.909.875m95.022-.119c-.16.421-.255.801-.209.846.045.046.203-.272.35-.705.349-1.022.238-1.133-.141-.141m252.693-.008c.152.32.307.552.343.515.076-.076-.43-1.096-.544-1.096-.042 0 .048.261.201.581m-69.354.111c-.144.289-.262.568-.262.62 0 .145.43-.523.55-.854.173-.477-.006-.332-.288.234m-210.9-.109c.002.183.065.521.138.75l.133.417.005-.417a2.194 2.194 0 00-.138-.75l-.143-.333.005.333m39.598.125c-.372.569-.99 1.817-.93 1.877.029.029.336-.466.681-1.1.612-1.121.744-1.534.249-.777m143.149.542c.056.366.129.698.163.736.126.143.032-.75-.113-1.07-.105-.232-.12-.131-.05.334m-133.16.164c.153.32.307.552.343.516.076-.077-.43-1.097-.544-1.097-.042 0 .049.262.201.581m241.486-.164c.137.612.233.746.229.319a1.204 1.204 0 00-.172-.569c-.123-.183-.139-.115-.057.25m-169.667.5c.137.612.233.746.229.319a1.203 1.203 0 00-.171-.569c-.124-.183-.139-.115-.058.25m-132.745-.084c0 .138.065.4.144.584.09.21.143.241.143.083 0-.138-.065-.4-.143-.583-.091-.21-.144-.241-.144-.084m221.57.419c-.378.906-.311 1.128.08.265.183-.403.298-.768.256-.81-.042-.042-.193.203-.336.545m-183.164.01c-.062.244-.08.476-.04.515.039.04.121-.128.182-.372.062-.244.08-.476.04-.516-.039-.039-.121.129-.182.373m264.266.071c.008.433.271 1.145.277.75a1.96 1.96 0 00-.139-.666c-.087-.205-.141-.237-.138-.084m-290.996.334c-.004.229.052.754.126 1.166l.133.75.001-.666a5.706 5.706 0 00-.126-1.167c-.115-.453-.128-.461-.134-.083m-69.324.041c-.235.294-.732 1.292-.644 1.292.041 0 .262-.337.493-.75.415-.743.471-.943.151-.542m190.653.125c.009.433.271 1.145.277.75a1.958 1.958 0 00-.138-.666c-.088-.205-.142-.237-.139-.084m49.662.084c0 .183.065.483.143.666l.144.334v-.334c0-.183-.065-.483-.144-.666l-.143-.334v.334m11.767 1.166c.049.825.116 1.532.149 1.57.117.134.04-1.745-.098-2.403-.096-.453-.112-.187-.051.833m75.465-.494c-.358 1.232-.237 1.354.145.144.161-.511.256-.965.212-1.01-.045-.045-.205.345-.357.866M196.69 48c0 .137.065.4.143.583.091.21.144.241.144.084 0-.138-.065-.4-.144-.584-.09-.21-.143-.241-.143-.083m-122.33.25c-.004.183.055.633.13 1l.138.667.003-.584c.001-.321-.058-.77-.131-1-.108-.337-.135-.353-.14-.083m37.754.147a1.73 1.73 0 00-.103.575c.007.184.064.142.171-.124.088-.222.135-.48.103-.575-.031-.095-.108-.039-.171.124m23.576-.064c0 .138.065.4.143.584.091.21.144.241.144.083 0-.138-.065-.4-.144-.583-.09-.21-.143-.241-.143-.084m171.227.334c-.143.275-.221.5-.176.5.046 0 .2-.225.342-.5.143-.275.221-.5.176-.5-.046 0-.2.225-.342.5m-122.5 0c-.063.197-.077.396-.031.441.046.046.135-.078.197-.275.063-.197.077-.396.031-.441-.046-.046-.135.078-.197.275m182.278-.084c-.003.184.06.484.138.667.183.425.183-.013 0-.583-.107-.335-.134-.352-.138-.084m10.404.667c.139.827.235.96.232.319-.002-.267-.079-.598-.173-.736-.122-.179-.139-.061-.059.417m-180.066.083c0 .23.06.605.134.834l.133.416v-.416c0-.229-.06-.604-.133-.834l-.134-.416v.416m59.996.084c-.005.183.052.633.128 1 .116.56.138.587.137.166 0-.583-.249-1.679-.265-1.166m-120.99.25c0 .229.058.641.128.916.113.446.127.455.127.084 0-.229-.057-.642-.127-.917-.114-.446-.128-.455-.128-.083m37.742-.103c-.063.163-.11.422-.104.575.007.184.065.142.172-.125.088-.221.135-.48.103-.575-.032-.095-.109-.039-.171.125m10.323.29c-.139.695-.004.83.146.146.063-.288.08-.559.038-.601-.043-.042-.125.162-.184.455m23.261-.271c.004.184.065.559.135.834l.127.5.008-.5c.005-.275-.056-.65-.135-.834l-.143-.333.008.333m98.908.356c-.158.331-.251.639-.207.683.045.044.199-.201.343-.546.34-.814.236-.918-.136-.137M111.75 50c-.063.288-.08.559-.038.601.043.042.125-.162.184-.455.139-.695.004-.83-.146-.146m-108.313.09a1.603 1.603 0 00-.089.549c.008.153.08.056.161-.214.157-.526.101-.786-.072-.335m119.75-.09a7.727 7.727 0 01-.117.667c-.08.36-.067.376.096.12.104-.163.157-.463.118-.667-.04-.203-.083-.258-.097-.12m220.23.333c-.064.288-.081.559-.038.601.042.043.125-.162.184-.455.138-.695.004-.829-.146-.146m23.622-.083c0 .275.058.725.128 1l.127.5v-.5a4.89 4.89 0 00-.127-1l-.128-.5v.5m-13.289.25c-.063.288-.078.561-.032.607.046.046.135-.152.199-.44.063-.288.077-.562.031-.608-.045-.045-.135.153-.198.441m-59.303-.103a1.756 1.756 0 00-.103.575c.007.184.065.142.171-.124.089-.222.135-.48.104-.575-.032-.095-.109-.039-.172.124m83.002.853c.051.55.121 1.031.155 1.069.112.124.027-1.055-.113-1.569-.089-.329-.103-.158-.042.5m-204.002-.353a1.756 1.756 0 00-.103.575c.007.184.065.142.171-.124.089-.222.135-.48.104-.575-.032-.095-.109-.039-.172.124m10.325.417c-.064.402-.081.766-.038.809.112.112.314-1.063.227-1.322-.039-.119-.124.112-.189.513M86.049 63.917c-.004 7.241.04 13.991.097 15 .057 1.008.083-4.654.058-12.584-.026-7.929-.07-14.679-.097-15-.028-.321-.054 5.342-.058 12.584m111.322-12.584c-.003.321.052.996.122 1.5l.127.917.011-.75a9.603 9.603 0 00-.122-1.5c-.123-.687-.134-.701-.138-.167m108.379-.166c-.063.197-.076.396-.03.441.045.046.134-.078.197-.275.062-.197.076-.396.03-.441-.046-.046-.134.078-.197.275M3.114 51.23a1.735 1.735 0 00-.103.575c.007.184.064.142.171-.124.088-.221.135-.48.103-.575-.031-.095-.108-.039-.171.124m108.334.274c-.06.227-.103.638-.094.913.013.398.046.348.163-.25.162-.82.109-1.327-.069-.663m231.659.031a2.88 2.88 0 00-.088.715c.008.183.083.041.167-.317.163-.692.093-1.041-.079-.398m-220.348.391c-.062.334-.076.646-.03.691.045.046.134-.19.197-.524.063-.335.077-.646.031-.692-.046-.046-.135.19-.198.525m13.574 12.714l-.083 13.39-3.833.007c-2.42.004-3.588.056-3.167.142 1.201.244 6.849.186 7.064-.072.137-.165.176-3.843.145-13.542l-.043-13.315-.083 13.39m71.451-12.14c.051.688.12 1.281.154 1.319.115.13.023-1.566-.112-2.069-.082-.305-.098-.013-.042.75m86.32-.91a1.888 1.888 0 00-.087.632c.011.228.067.147.154-.221.146-.619.106-.862-.067-.411m59.327.757c-.063.472-.081.892-.04.933.041.041.128-.31.192-.78.065-.47.083-.89.04-.933-.043-.043-.13.308-.192.78m-96.057 16.861l-.041 17.459H263c3.117 0 5.667-.057 5.667-.125 0-.069-2.512-.105-5.583-.079l-5.582.046-.044-17.38-.043-17.379-.041 17.458M73.667 52.167l-.917.112.865.027c.476.015.912-.048.968-.139.057-.092.08-.155.052-.14-.028.015-.464.078-.968.14m99.416.5c-.064.379-.081.724-.038.766.042.043.127-.234.188-.616s.079-.727.039-.767c-.04-.04-.125.238-.189.617m-170.342.074c-.063.334-.077.645-.031.691.046.046.135-.19.197-.525.063-.334.077-.645.031-.691-.046-.046-.135.19-.197.525M367.33 53.75l-.08 1.667h-13.833l-.1-.75c-.097-.725-.101-.73-.125-.139-.05 1.225-.596 1.139 7.164 1.139 5.648 0 7.004-.043 7.073-.221.046-.122.061-.928.032-1.792l-.052-1.571-.079 1.667M70 52.503c-.247.08.093.098.833.043.688-.051 1.282-.119 1.32-.152.137-.12-1.746-.024-2.153.109m-55.896.518c-.139.695-.004.829.146.146.063-.288.08-.559.038-.601-.043-.043-.125.162-.184.455m53.979-.188c-.424.183.014.183.584 0 .335-.107.351-.134.083-.138a1.969 1.969 0 00-.667.138m115.338 1.09c-.084.897-.059 1.327.086 1.502.308.372 14.008.283 14.131-.092.068-.206.038-.213-.172-.039-.198.163-1.778.2-7.069.166l-6.814-.043.056-1.375c.069-1.72-.061-1.791-.218-.119m110.352-.888c-.056.21-.095.532-.087.715.008.183.083.041.167-.317.162-.692.093-1.041-.08-.398m11.331.319c-.139.695-.004.83.146.146.063-.288.08-.559.038-.601-.043-.042-.125.162-.184.455m37.677-.183c-.06.227-.103.6-.095.829.01.299.057.232.168-.239.169-.722.104-1.251-.073-.59m-276.198-.004c-.424.182.014.182.584 0 .335-.108.351-.135.083-.139a1.97 1.97 0 00-.667.139m311.167 4.75c0 2.75.05 4.625.11 4.166.142-1.069.141-7.049-.001-8.25-.06-.504-.109 1.334-.109 4.084M122.423 54.09c-.064.516-.083.973-.04 1.015.042.042.129-.345.194-.861.064-.516.083-.973.04-1.016-.042-.042-.129.346-.194.862m-57.09-.59c-.222.144-.222.162 0 .162.138 0 .363-.073.5-.162.223-.144.223-.162 0-.162-.137 0-.362.073-.5.162m45.78.418c-.06.366-.1 1.003-.09 1.415.016.585.052.475.165-.5.157-1.353.104-1.998-.075-.915m-46.78-.085c-.222.144-.222.162 0 .162.138 0 .363-.073.5-.162.223-.143.223-.161 0-.161-.137 0-.362.072-.5.161m-61.885.338c-.06.227-.103.637-.094.912.013.399.046.349.163-.25.162-.819.109-1.326-.069-.662m11.406-.088a7.341 7.341 0 01-.111.75l-.086.417.179-.409c.098-.225.148-.562.111-.75-.067-.332-.069-.332-.093-.008m158.93.23a5.025 5.025 0 00-.099 1c.012.288.069.181.168-.313.082-.413.127-.863.099-1-.027-.138-.103.003-.168.313m-110.409.284c-.298.131-.542.276-.542.322 0 .087 1.169-.366 1.311-.508.142-.141-.219-.054-.769.186m231.064.251c-.058.29-.097.724-.086.965.011.24.087.032.169-.463.16-.966.092-1.378-.083-.502m11.328.169c-.061.382-.079.727-.039.766.04.04.125-.237.189-.616s.081-.724.038-.767c-.042-.043-.127.235-.188.617m-96.698 2.733c0 1.65.025 2.302.055 1.45.031-.853.03-2.203 0-3-.031-.798-.055-.1-.055 1.55m134.383-2.333a7.567 7.567 0 00-.097 1.25c.014.417.061.298.167-.417.168-1.134.108-1.856-.07-.833m-282.119.263l-.416.34.541-.264c.298-.146.542-.3.542-.344 0-.165-.265-.059-.667.268m-46.91.91c-.064.516-.083.973-.04 1.015.042.042.129-.345.194-.861.064-.516.083-.973.04-1.016-.042-.042-.129.346-.194.862m108.658 1.648c-.066 1.322-.055 3.403.024 4.625.133 2.039.146 1.843.152-2.405.004-2.543-.007-4.625-.024-4.625s-.086 1.082-.152 2.405M2.107 56.625c-.14.845-.117 8.627.028 9.442.063.357.115-1.761.115-4.709 0-2.947-.009-5.358-.02-5.358-.011 0-.066.281-.123.625m302.305.953c-.066.699-.083 1.306-.039 1.351.044.044.132-.493.196-1.194.063-.7.081-1.308.038-1.35-.042-.042-.13.495-.195 1.193m-131.972-.054c-.138 1.321-.116 6.999.031 7.976.062.412.112-1.444.112-4.125s-.008-4.875-.018-4.875c-.009 0-.066.461-.125 1.024m-114.36-.33c-.993.79-2.394 2.157-2.789 2.723-.192.275.245-.107.971-.849.727-.742 1.621-1.583 1.988-1.869.367-.287.628-.524.58-.527-.048-.003-.386.232-.75.522m235.028.348c-.135 1.123-.113 6.453.032 7.541.06.459.11-1.248.11-3.791 0-2.544-.008-4.625-.018-4.625-.011 0-.066.393-.124.875m-182.204 2.875c0 2.016.025 2.818.054 1.782a77.282 77.282 0 000-3.667c-.03-.98-.054-.132-.054 1.885m231.332.916c0 1.788.025 2.519.055 1.625.03-.893.03-2.356 0-3.25-.03-.893-.055-.162-.055 1.625m-329.003-.5c0 1.33.026 1.873.057 1.209.032-.665.032-1.752 0-2.417-.031-.665-.057-.121-.057 1.208m59.1-1.003c-.375.076-.003.113 1.04.103.893-.009 1.624-.073 1.625-.141.002-.153-1.86-.127-2.665.038m-2 .337l-.416.133.416.005c.23.003.567-.06.75-.138l.334-.144-.334.005c-.183.003-.52.065-.75.139m-1.583.479c-.885.319-1.917.819-1.917.928 0 .036.544-.163 1.209-.443a206.28 206.28 0 011.541-.642c.662-.265-.02-.136-.833.157m-14.119.146c-.284.325-.68 1.041-.576 1.041.037 0 .266-.3.509-.666.464-.703.493-.864.067-.375m11.092 1.517c-.815.65-1.519 1.358-1.349 1.358.051 0 .344-.247.651-.548.307-.301.821-.75 1.142-.998.32-.248.533-.451.473-.452-.061-.002-.473.287-.917.64m142.139.116c-.049 1.144.741 1.075-12.385 1.075-6.577 0-11.992.056-12.035.125-.042.069 5.383.105 12.055.081 13.51-.049 12.573.044 12.459-1.235l-.064-.721-.03.675m-154.454.425c-.237.467-.402.878-.368.912.034.034.263-.348.509-.85s.412-.912.369-.912c-.044 0-.273.382-.51.85m250.961.317a9.613 9.613 0 00.122 1.5c.186 1.041.198-.016.016-1.334l-.127-.916-.011.75m73.131.139c0 .146-2.983.194-12.063.194-9.462 0-12.094.045-12.208.208-.08.115-.103.771-.051 1.459l.095 1.25.03-1.375.03-1.375h12.074c11.559 0 12.609-.04 12.193-.456-.055-.055-.1-.012-.1.095M13.362 64.333c-.005.23.053.717.128 1.084.089.427.142.517.148.25.005-.229-.053-.717-.128-1.084-.089-.427-.142-.517-.148-.25m169.984.931c.006.542.075 1.323.152 1.736.096.513.111.223.049-.917-.101-1.856-.22-2.341-.201-.819m-120.176.311c-.186.434-.378.989-.427 1.232-.05.244.06.068.244-.39.183-.459.416-.972.518-1.142.102-.169.144-.348.094-.398-.05-.05-.243.264-.429.698m47.85.106c.011.496.079 1.127.152 1.402.078.296.095-.044.041-.833-.106-1.545-.222-1.887-.193-.569m231.333.5c.011.404.081.961.156 1.236.086.315.102.069.043-.667-.106-1.325-.229-1.677-.199-.569M122.362 66c-.005.229.053.717.128 1.083.089.428.142.518.148.25.005-.229-.053-.716-.128-1.083-.089-.428-.142-.517-.148-.25m182.338.167c0 .229.06.604.133.833l.134.417V67c0-.229-.06-.604-.134-.833l-.133-.417v.417m-252.596.089a1.894 1.894 0 00-.087.633c.011.228.067.147.154-.221.146-.62.106-.862-.067-.412m241.246.675c.009.359.08.84.159 1.069.092.27.108.064.045-.583-.111-1.159-.228-1.437-.204-.486M13.695 66.75c.003.183.065.521.138.75l.134.417.005-.417a2.218 2.218 0 00-.139-.75l-.143-.333.005.333m158.988.681c.009.267.081.673.159.902.095.281.11.146.045-.416-.108-.938-.229-1.226-.204-.486m180.687-.098c.001.23.06.642.13.917l.127.5.003-.5a3.561 3.561 0 00-.13-.917l-.133-.416.003.416m-351.025.348c.006.313.08.719.163.902.103.225.119.061.051-.5-.121-.992-.23-1.198-.214-.402m49.428.187c-.056.21-.094.607-.084.882.012.345.06.243.155-.328.146-.871.103-1.203-.071-.554m10.667.257c-.128.779-.103 3.623.038 4.282.058.27.105-.724.105-2.208 0-2.987.003-2.953-.143-2.074m242.574-.292c.005.138.074.4.153.584l.143.333.009-.333a1.202 1.202 0 00-.152-.584c-.144-.222-.161-.222-.153 0m-290.991.334c0 .137.065.4.144.583.09.21.143.241.143.083 0-.137-.065-.4-.143-.583-.091-.21-.144-.241-.144-.083m97.327.264c.009.267.08.673.158.902.096.281.11.146.046-.416-.109-.938-.229-1.226-.204-.486m11.353-.181c.002.183.06.558.13.833.115.449.128.458.131.084a3.227 3.227 0 00-.131-.834c-.104-.326-.132-.344-.13-.083m61 0c.002.183.06.558.13.833.115.449.128.458.131.084a3.227 3.227 0 00-.131-.834c-.104-.326-.132-.344-.13-.083m159 .417a3.21 3.21 0 00.13.833c.18.56.18-.045 0-.75-.114-.449-.127-.458-.13-.083m-49.025.347c.007.221.08.553.163.736.105.232.12.131.05-.333-.118-.774-.23-.985-.213-.403M305.357 69c0 .137.064.4.143.583.09.21.143.241.143.084 0-.138-.064-.4-.143-.584-.09-.21-.143-.241-.143-.083m48.338.167c.008.433.271 1.144.277.75a1.96 1.96 0 00-.139-.667c-.087-.204-.141-.236-.138-.083m-351.017.347c.007.221.08.553.163.736.105.232.12.131.05-.333-.118-.774-.23-.985-.213-.403m170.334 0c.006.221.079.553.162.736.106.232.121.131.05-.333-.118-.774-.229-.985-.212-.403m11.002.319c.005.138.074.4.153.584l.143.333.009-.333a1.202 1.202 0 00-.152-.584c-.144-.222-.161-.222-.153 0m-61 .167c.005.137.074.4.153.583l.143.334.009-.334a1.198 1.198 0 00-.152-.583c-.144-.222-.161-.222-.153 0m-11.336.347c.007.222.08.553.163.736.105.233.12.132.05-.333-.118-.774-.23-.985-.213-.403m231.334 0c.006.222.079.553.162.736.106.233.121.132.05-.333-.118-.774-.229-.985-.212-.403m-328.334-.142c-.019.197.524 1.482.596 1.41.037-.037-.08-.396-.259-.799s-.33-.678-.337-.611m36.875 1.128c0 .596.031.84.068.542a5.297 5.297 0 000-1.083c-.037-.298-.068-.055-.068.541m242.475-.75c-.002.184.06.484.139.667.182.425.182-.013 0-.583-.108-.335-.135-.352-.139-.084m59.977-.083c0 .137.073.362.162.5.143.222.161.222.161 0 0-.138-.072-.363-.161-.5-.144-.222-.162-.222-.162 0M3.023 71c0 .137.065.4.144.583.09.21.143.241.143.084 0-.138-.065-.4-.143-.584-.091-.21-.144-.241-.144-.083m170.334 0c0 .137.064.4.143.583.09.21.143.241.143.084 0-.138-.064-.4-.143-.584-.09-.21-.143-.241-.143-.083m132.647-.103c-.043 1.448 3.859 5.766 5.746 6.358.183.057-.112-.145-.657-.45-1.874-1.05-3.174-2.473-4.462-4.888-.342-.642-.624-1.101-.627-1.02m-182.647.27c0 .137.064.4.143.583.09.21.143.241.143.083 0-.137-.064-.4-.143-.583-.09-.21-.143-.241-.143-.083m230.988.205c-.019.197.524 1.481.596 1.409.036-.036-.08-.395-.259-.798s-.33-.678-.337-.611m-10.997.378c-.005.183.063.446.152.583.214.332.214-.085 0-.583l-.143-.333-.009.333m-231.345.181c.001.175.078.431.171.569.124.183.139.115.058-.25-.137-.613-.233-.746-.229-.319m182.345-.014c-.005.183.063.445.152.583.214.331.214-.085 0-.583l-.143-.334-.009.334M15.6 72.375c.891 1.754 2.526 3.529 3.919 4.256.402.21.59.285.417.167-2.028-1.386-3.298-2.721-4.122-4.335-.176-.346-.359-.63-.405-.63-.046 0 .04.244.191.542m169.067-.481c0 .202.852 1.809.922 1.739.036-.036-.118-.431-.344-.877-.422-.832-.578-1.066-.578-.862M3.348 72.25c-.005.183.063.446.152.583.214.332.214-.085 0-.583l-.143-.333-.009.333m340.343.667c0 .183.145.633.321 1 .33.686.272.282-.107-.75-.131-.355-.215-.453-.214-.25m11.657.739c.476.849 1.688 2.231 2.368 2.703.294.203.076-.075-.485-.62-.56-.544-1.26-1.383-1.556-1.864-.625-1.019-.868-1.181-.327-.219m-292.62-.122c.162.676.439 1.355.519 1.274.079-.079-.386-1.508-.534-1.641-.051-.046-.045.119.015.367m-11.05.48c.007.313.08.719.164.903.102.224.118.061.05-.5-.121-.993-.23-1.199-.214-.403m-47.673.1c-.006.246.855 2.249.933 2.171.031-.032-.165-.577-.436-1.213-.271-.635-.495-1.067-.497-.958m108.664.15c.002.176.079.432.172.569.123.183.139.115.057-.25-.137-.612-.232-.746-.229-.319m61.664.021c0 .236.485 1.382.585 1.382.043 0-.045-.319-.196-.709-.308-.789-.389-.929-.389-.673m11.847.298c.376.572 1.215 1.431 1.737 1.779.365.243.325.178-.148-.242a18.383 18.383 0 01-1.228-1.222c-.318-.357-.481-.498-.361-.315m-61.166.572c.202.36.748 1.017 1.212 1.458l.844.804-.748-.834c-.412-.458-.922-1.114-1.133-1.458-.507-.828-.645-.804-.175.03m22.672 1.359c.011 1.138.077 2.819.147 3.736.081 1.06.096.332.043-2-.047-2.017-.113-3.698-.147-3.736-.034-.038-.054.862-.043 2m-84.353-1.419c0 .251 1.071 1.607 1.547 1.959.715.528 1.174.743.537.251-.699-.54-1.397-1.306-1.683-1.847-.226-.426-.401-.585-.401-.363m-11.33.669c.001.176.078.432.171.569.124.183.139.115.058-.25-.137-.612-.233-.746-.229-.319m243.664-.204c0 .181 1.161 2.44 1.254 2.44.046 0-.189-.544-.522-1.208-.624-1.247-.732-1.429-.732-1.232m49.007.023c-.027 1.309 3.835 6.447 5.935 7.895l.808.556-.75-.628c-2.307-1.93-4.035-4.097-5.34-6.696-.357-.711-.651-1.218-.653-1.127M175 75.893c0 .188 1.117 2.328 1.404 2.69.145.184-.086-.341-.514-1.166-.829-1.599-.89-1.703-.89-1.524M52.336 76.931c.001.175.079.431.172.569.123.183.139.115.057-.25-.137-.613-.233-.746-.229-.319m152.07-.08c-.077.124.001.148.24.072l.354-.112v3.919c0 3.558-.027 3.936-.292 4.09-.16.093-.213.172-.116.175.517.015.575-.421.575-4.362 0-3.815-.013-3.966-.324-3.966-.178 0-.375.083-.437.184m169.833 0c-.077.124.002.148.24.072l.354-.112v3.919c0 3.553-.027 3.937-.291 4.101-.267.166-.263.177.041.131.517-.077.613-8.295.096-8.295-.179 0-.377.083-.44.184m-343.781.093c.159.064.209 1.088.209 4.326v4.242l-.709.298c-.389.165-1.079.401-1.532.525-.454.125-.737.256-.63.292.232.077 2.129-.563 2.662-.899.523-.328.603-8.905.084-8.882-.175.008-.208.047-.084.098m83.216-.089c-.015.22.516 1.343.598 1.262.047-.047-.067-.374-.253-.726-.185-.353-.341-.594-.345-.536m207.243.238c-.275.135-.362.206-.193.159.169-.048.487-.132.708-.187l.401-.101v8.496l-.528.219c-.291.12-.446.246-.344.28.102.034.377-.064.612-.218l.427-.279v-4.315c0-4.784.047-4.608-1.083-4.054M29.5 77.167c-.222.143-.222.161 0 .161a1.1 1.1 0 00.5-.161c.222-.144.222-.162 0-.162-.137 0-.363.073-.5.162m173.917 0c-.122.197.041.197.5 0 .321-.138.32-.144-.032-.155-.201-.007-.412.063-.468.155m155.416-.088c0 .127 1.024.62 1.11.534.043-.043-.163-.199-.458-.346-.578-.288-.652-.309-.652-.188m14.334.088c-.332.214.085.214.583 0l.333-.144-.333-.009a1.199 1.199 0 00-.583.153m-367.584.5c.143.275.296.5.342.5.046 0-.033-.225-.175-.5s-.296-.5-.342-.5c-.046 0 .033.225.175.5m22.75-.167c-.331.214.085.214.584 0l.333-.143-.333-.009a1.202 1.202 0 00-.584.152m98.834-.075c0 .122 1.02.596 1.17.543.081-.028-.149-.177-.511-.331-.363-.153-.659-.249-.659-.212m63.083.251c.367.173.779.314.917.312.137-.002-.125-.15-.584-.329-1.043-.407-1.211-.399-.333.017m12-.176c-.21.09-.241.143-.083.143.137 0 .4-.064.583-.143.21-.09.241-.143.083-.143-.137 0-.4.064-.583.143m110.083 0c.138.089.363.162.5.162.223 0 .223-.018 0-.162a1.098 1.098 0 00-.5-.162c-.222 0-.222.018 0 .162m7.084 0c-.425.183.013.183.583 0 .335-.107.351-.134.083-.138a1.935 1.935 0 00-.666.138m52.583 0c-.331.214.085.214.583 0l.334-.143-.334-.009a1.198 1.198 0 00-.583.152m-349.583.333c.275.07.725.128 1 .128h.5l-.5-.128a4.89 4.89 0 00-1-.127h-.5l.5.127m3.583 0l-.75.117.75.005c.412.003.975-.052 1.25-.122l.5-.127-.5.005a11.02 11.02 0 00-1.25.122m174.667 0c-.561.18.045.18.75 0 .449-.114.457-.127.083-.13a3.21 3.21 0 00-.833.13m112.916 0c.275.07.725.128 1 .128.421.001.394-.021-.166-.137-.845-.175-1.527-.167-.834.009m3.584 0c-.688.107-.702.118-.167.132a6.57 6.57 0 001.25-.122c.861-.178.046-.185-1.083-.01m53.25 0l-.334.144.334-.005c.183-.003.521-.065.75-.139l.416-.133-.416-.005a2.218 2.218 0 00-.75.138m-295.705.188c-.124.124-1.405.163-4.063.122-2.134-.033-3.66-.012-3.39.046.881.189 7.545.16 7.665-.033.156-.254.005-.351-.212-.135m117.038.146c.183.078.521.141.75.138l.417-.005-.417-.133a3.158 3.158 0 00-.75-.139l-.333-.005.333.144m6.75 0c-.443.093-.483.125-.167.135.23.007.717-.05 1.084-.126.555-.115.583-.137.166-.135a6.58 6.58 0 00-1.083.126m163.083 0c.184.078.484.143.667.143h.333l-.333-.143a2.018 2.018 0 00-.667-.144h-.333l.333.144m6.75 0c-.585.187.027.193.917.009l.667-.138-.584-.002c-.321-.002-.77.057-1 .131m-71.082.458c.755 1.194 2.225 2.977 3.147 3.816 1.412 1.286 4.015 3.035 4.217 2.833.041-.041-.372-.313-.918-.604-2.118-1.129-4.47-3.337-5.995-5.628-.596-.895-.974-1.245-.451-.417m-182.918-.217c0 .195 1.233 2.145 1.612 2.55l.429.459-.407-.584a24.073 24.073 0 01-.949-1.541c-.484-.855-.685-1.114-.685-.884m79.882.049c.623.032 1.598.032 2.167 0 .569-.033.06-.059-1.132-.059s-1.657.027-1.035.059m169.917 0c.576.033 1.476.032 2-.001.523-.033.051-.059-1.049-.059-1.1 0-1.528.027-.951.06m-311.128.258c-.016.534 1.688 3.118 2.769 4.199.945.945 2.534 2.168 2.657 2.045.048-.048-.198-.262-.546-.475-1.493-.911-3.263-2.907-4.326-4.879-.303-.562-.552-.962-.554-.89m124.169 1.044c.727 1.057 2.328 2.74 3.369 3.541 1.106.851 3.13 2.083 3.241 1.973.046-.046-.28-.268-.725-.494-1.864-.946-4.085-2.85-5.411-4.639-.952-1.284-1.273-1.542-.474-.381m-169.875.497c.44.654 2.459 2.672 3.113 3.113.278.187.04-.085-.529-.605a37.33 37.33 0 01-1.98-1.979c-.519-.569-.791-.807-.604-.529m109.469 1.81c.886 1.209 4.124 3.616 4.84 3.597.078-.002-.329-.258-.906-.569-1.203-.649-2.181-1.417-3.49-2.745-.741-.751-.827-.806-.444-.283m-30.396.267c-.004.413.05 1.125.121 1.584.126.804.13.81.136.166a13.443 13.443 0 00-.121-1.583l-.127-.917-.009.75m61.662.834c-.004.32.052.92.125 1.333.124.695.134.707.142.167a8.527 8.527 0 00-.125-1.334c-.123-.694-.134-.707-.142-.166m-136.878.732c.225.275 1.178.849 1.178.711 0-.036-.318-.276-.708-.533-.401-.264-.605-.341-.47-.178m340.671.419c.47.366 2.507 1.405 2.59 1.321.03-.031-.632-.412-1.472-.848-.84-.435-1.343-.648-1.118-.473M12.5 84.749c0 .112 1.687.953 1.762.878.034-.034-.348-.263-.85-.509s-.912-.412-.912-.369m46.167.333c0 .114 1.02.62 1.096.543.037-.036-.195-.19-.515-.342-.32-.153-.581-.243-.581-.201m28.074.8l.074.632-12.275-.049c-6.751-.026-12.053-.001-11.782.057.271.058 5.801.114 12.289.125 12.769.021 12.107.072 11.785-.897-.16-.483-.163-.479-.091.132m218.092-.468c0 .107 1.153.587 1.396.582.103-.002-.139-.152-.539-.333-.775-.352-.857-.375-.857-.249M202 85.833c-.222.144-.222.162 0 .162.137 0 .362-.073.5-.162.222-.143.222-.161 0-.161-.138 0-.363.072-.5.161m152.711-.073c.171.179 1.306.571 1.622.559.138-.005-.012-.106-.333-.224-.988-.363-1.422-.476-1.289-.335m17.039.073l-.333.144.333.009c.183.005.446-.064.583-.153.332-.214-.085-.214-.583 0m-223.417.34c0 .339-.021.339-12.094.292-6.651-.027-11.92 0-11.708.06.212.06 5.692.116 12.177.125l11.792.017v-.417c0-.229-.038-.417-.083-.417-.046 0-.084.153-.084.34m-87.166-.009c.137.09.431.165.652.167.535.003.4-.092-.319-.223-.41-.076-.509-.059-.333.056m61.75.003c.183.078.483.141.666.138.268-.004.252-.031-.083-.138-.57-.183-1.008-.183-.583 0m62.916 0c.138.089.4.157.584.152l.333-.009-.333-.143c-.499-.214-.915-.214-.584 0m15 0c-.343.11-.358.136-.083.147.183.008.446-.058.583-.147.292-.189.09-.189-.5 0m105.75 0c.057.091.268.161.469.155.352-.012.353-.017.031-.155-.458-.197-.622-.197-.5 0m13 .166c-.458.169-.767.314-.686.321.245.021 1.508-.367 1.678-.515.239-.21-.052-.152-.992.194m51-.166c-.461.117-.467.128-.083.144.229.01.529-.055.667-.144.283-.184.137-.184-.584 0m-354 .333c.184.079.446.143.584.143.157 0 .126-.053-.084-.143a1.827 1.827 0 00-.583-.143c-.158 0-.127.053.083.143m170.5 0c.184.079.446.143.584.143.157 0 .126-.053-.084-.143a1.827 1.827 0 00-.583-.143c-.158 0-.127.053.083.143m12.25 0c-.335.107-.351.134-.083.138.183.003.483-.059.667-.138.424-.183-.014-.183-.584 0m108.334-.008c.137.093.393.171.569.172.427.004.293-.092-.319-.229-.365-.082-.433-.066-.25.057m49.166.008c.138.089.438.155.667.148l.417-.015-.417-.133c-.642-.206-.985-.206-.667 0m12.25 0l-.5.127.5.017c.275.01.613-.055.75-.144.31-.2.037-.2-.75 0m-351.166.329c.318.141 1.381.236 1.236.111-.038-.033-.407-.105-.82-.159-.5-.067-.639-.051-.416.048m8.333.004l-.667.12.584.012c.321.006.733-.053.916-.132.393-.168.11-.168-.833 0m162.333-.001c.319.138 1.548.233 1.403.108-.038-.033-.444-.103-.903-.156-.536-.062-.714-.045-.5.048m8.5.001l-.666.12.666.007c.367.004.855-.053 1.084-.127l.416-.133-.416.007a8.81 8.81 0 00-1.084.126m112-.004c.319.141 1.381.236 1.236.111-.038-.033-.407-.105-.819-.159-.501-.067-.639-.051-.417.048m8.25.004l-.583.123.583.01c.321.006.734-.054.917-.133l.333-.143-.333.01a6.966 6.966 0 00-.917.133m41-.008c.417.142 1.451.23 1.32.113-.038-.034-.445-.105-.903-.158-.562-.065-.698-.05-.417.045m8.667.008l-.583.123.583.005c.321.003.771-.054 1-.128l.417-.133-.417.005a6.514 6.514 0 00-1 .128m-345.7.291c.76.031 1.96.031 2.666 0s.084-.057-1.383-.057c-1.466.001-2.044.026-1.283.057m170.742 0a26.38 26.38 0 002.25 0c.618-.032.112-.059-1.125-.059-1.238 0-1.744.027-1.125.059m120.258 0c.76.031 1.96.031 2.666 0s.084-.057-1.383-.057c-1.466.001-2.044.026-1.283.057m49.568-.001c.614.032 1.664.033 2.333.001.669-.032.166-.058-1.118-.058-1.283-.001-1.83.025-1.215.057"/></g></svg>